<svg xmlns="http://www.w3.org/2000/svg" width="149.464" height="67.814" viewBox="0 0 149.464 67.814">
  <g id="Grupo_145" data-name="Grupo 145" transform="translate(-574.348 -1326.563)">
    <g id="Grupo_144" data-name="Grupo 144">
      <path id="Trazado_382" data-name="Trazado 382" d="M688.473,1390.266a3.538,3.538,0,1,1,0-7.076h0v-3.427h0a3.538,3.538,0,1,1,0-7.076h0v-3.427h0a3.538,3.538,0,1,1,0-7.076h0v-3.427h0a3.538,3.538,0,1,1,0-7.076h0v-3.428h0a3.538,3.538,0,1,1,0-7.076h0v-3.427h0a3.538,3.538,0,1,1,0-7.076h0v-3.736h-3.737a3.538,3.538,0,0,1-7.076,0h-3.427a3.538,3.538,0,0,1-7.076,0H663.73a3.537,3.537,0,1,1-7.075,0h-3.428a3.538,3.538,0,0,1-7.076,0h-3.427a3.538,3.538,0,0,1-7.076,0h-3.427a3.538,3.538,0,0,1-7.076,0h-3.736v3.736h0a3.538,3.538,0,1,1,0,7.076h0v3.427h0a3.538,3.538,0,1,1,0,7.076h0v3.428h0a3.538,3.538,0,1,1,0,7.076h0v3.427h0a3.538,3.538,0,1,1,0,7.076h0v3.427h0a3.538,3.538,0,1,1,0,7.076h0v3.427h0a3.538,3.538,0,1,1,0,7.076h0V1394h3.736a3.538,3.538,0,0,1,7.076,0h3.427a3.538,3.538,0,0,1,7.076,0h3.427a3.538,3.538,0,0,1,7.076,0h3.428a3.537,3.537,0,1,1,7.075,0h3.427a3.538,3.538,0,0,1,7.076,0h3.427a3.538,3.538,0,0,1,7.076,0h3.737v-3.736Z" fill="none" stroke="#e84133" stroke-miterlimit="10" stroke-width="0.75"/>
      <g id="Grupo_143" data-name="Grupo 143">
        <g id="Grupo_142" data-name="Grupo 142">
          <rect id="Rectángulo_35" data-name="Rectángulo 35" width="48.695" height="24.347" transform="translate(630.593 1360.47)" fill="none" stroke="#e84133" stroke-miterlimit="10" stroke-width="0.75"/>
          <path id="Trazado_383" data-name="Trazado 383" d="M630.593,1360.485a24.332,24.332,0,0,0,48.665,0Z" fill="none" stroke="#e84133" stroke-miterlimit="10" stroke-width="0.75"/>
          <path id="Trazado_384" data-name="Trazado 384" d="M679.258,1360.485H630.593l24.332-24.332Z" fill="none" stroke="#e84133" stroke-miterlimit="10" stroke-width="0.75"/>
          <line id="Línea_141" data-name="Línea 141" y1="6.951" x2="41.698" transform="translate(630.593 1353.519)" fill="none" stroke="#e84133" stroke-miterlimit="10" stroke-width="0.75"/>
          <line id="Línea_142" data-name="Línea 142" y1="17.11" x2="31.539" transform="translate(630.593 1343.36)" fill="none" stroke="#e84133" stroke-miterlimit="10" stroke-width="0.75"/>
          <g id="Grupo_140" data-name="Grupo 140">
            <line id="Línea_143" data-name="Línea 143" y2="24.347" transform="translate(630.593 1360.47)" fill="none" stroke="#e84133" stroke-miterlimit="10" stroke-width="0.75"/>
            <line id="Línea_144" data-name="Línea 144" y2="10.359" transform="translate(635.004 1374.459)" fill="none" stroke="#e84133" stroke-miterlimit="10" stroke-width="0.75"/>
            <line id="Línea_145" data-name="Línea 145" y2="5.587" transform="translate(639.414 1379.231)" fill="none" stroke="#e84133" stroke-miterlimit="10" stroke-width="0.75"/>
            <line id="Línea_146" data-name="Línea 146" y2="2.676" transform="translate(643.824 1382.142)" fill="none" stroke="#e84133" stroke-miterlimit="10" stroke-width="0.75"/>
          </g>
          <g id="Grupo_141" data-name="Grupo 141">
            <line id="Línea_147" data-name="Línea 147" y2="24.347" transform="translate(679.288 1360.47)" fill="none" stroke="#e84133" stroke-miterlimit="10" stroke-width="0.75"/>
            <line id="Línea_148" data-name="Línea 148" y2="10.359" transform="translate(674.878 1374.459)" fill="none" stroke="#e84133" stroke-miterlimit="10" stroke-width="0.75"/>
            <line id="Línea_149" data-name="Línea 149" y2="5.587" transform="translate(670.467 1379.231)" fill="none" stroke="#e84133" stroke-miterlimit="10" stroke-width="0.75"/>
            <line id="Línea_150" data-name="Línea 150" y2="2.676" transform="translate(666.057 1382.142)" fill="none" stroke="#e84133" stroke-miterlimit="10" stroke-width="0.75"/>
          </g>
          <path id="Trazado_385" data-name="Trazado 385" d="M650.7,1376.739a5.972,5.972,0,0,0,8.447,0" fill="none" stroke="#e84133" stroke-miterlimit="10" stroke-width="0.75"/>
          <path id="Trazado_386" data-name="Trazado 386" d="M666.562,1367.849a5.971,5.971,0,0,0-8.446,0" fill="none" stroke="#e84133" stroke-miterlimit="10" stroke-width="0.75"/>
          <path id="Trazado_387" data-name="Trazado 387" d="M651.766,1367.849a5.972,5.972,0,0,0-8.447,0" fill="none" stroke="#e84133" stroke-miterlimit="10" stroke-width="0.75"/>
        </g>
        <path id="Trazado_388" data-name="Trazado 388" d="M679.288,1341.884a11.288,11.288,0,0,0-5.73,5.587,7.965,7.965,0,0,0-2.293-3.295,12.921,12.921,0,0,0-3.294-2.292,11.6,11.6,0,0,0,3.294-2.436,9.365,9.365,0,0,0,2.293-3.3,9.5,9.5,0,0,0,2.435,3.3A17.045,17.045,0,0,0,679.288,1341.884Z" fill="none" stroke="#e84133" stroke-miterlimit="10" stroke-width="0.75"/>
        <path id="Trazado_389" data-name="Trazado 389" d="M641.911,1341.884a11.29,11.29,0,0,0-5.731,5.587,7.962,7.962,0,0,0-2.292-3.295,12.925,12.925,0,0,0-3.295-2.292,11.6,11.6,0,0,0,3.295-2.436,9.36,9.36,0,0,0,2.292-3.3,9.514,9.514,0,0,0,2.436,3.3A17.047,17.047,0,0,0,641.911,1341.884Z" fill="none" stroke="#e84133" stroke-miterlimit="10" stroke-width="0.75"/>
      </g>
    </g>
    <path id="Trazado_390" data-name="Trazado 390" d="M694.32,1376.964v-.27h1.885c.539,0,.852-.135.943-.4a3.261,3.261,0,0,0,.135-1.01v-29.626a4.137,4.137,0,0,0-.1-1.044c-.067-.246-.348-.371-.841-.371h-2.02v-.269h12.86a15.926,15.926,0,0,1,6.4,1.313,17.635,17.635,0,0,1,5.32,3.535,16.342,16.342,0,0,1,3.6,5.219,15.847,15.847,0,0,1,1.313,6.43,16.8,16.8,0,0,1-1.212,6.363,16.179,16.179,0,0,1-3.4,5.252,16.429,16.429,0,0,1-5.118,3.569,15.376,15.376,0,0,1-6.363,1.313Zm6.127-32.455v31.849h3.906a17.881,17.881,0,0,0,6.564-1.145,13.9,13.9,0,0,0,8.182-8.181,17.932,17.932,0,0,0,1.144-6.565,18.669,18.669,0,0,0-1.111-6.6,13.642,13.642,0,0,0-3.2-5.016,14.668,14.668,0,0,0-5.017-3.2,17.881,17.881,0,0,0-6.564-1.145Z" fill="#123a25"/>
    <path id="Trazado_391" data-name="Trazado 391" d="M574.348,1376.716h3.5q.809,0,.943-.4a3.261,3.261,0,0,0,.135-1.01v-29.627a3.256,3.256,0,0,0-.135-1.01q-.135-.4-.943-.4h-3.5v-.269h7.541l13.871,28.347,12.053-28.347h5.858v.269h-1.886c-.538,0-.853.135-.942.4a3.2,3.2,0,0,0-.135,1.01V1375.3a4.176,4.176,0,0,0,.1,1.043c.067.248.347.371.842.371h2.02v.269h-9.09v-.269h1.885c.539,0,.852-.135.943-.4a3.263,3.263,0,0,0,.134-1.01v-29.29l-13.13,30.906-14.948-30.7V1375.3a4.179,4.179,0,0,0,.1,1.043c.068.248.347.371.842.371h3.636v.269h-9.7Z" fill="#123a25"/>
  </g>
</svg>
