<svg xmlns="http://www.w3.org/2000/svg" width="34.035" height="29.45" viewBox="0 0 34.035 29.45">
  <g id="Grupo_16" data-name="Grupo 16" transform="translate(33.649 29.069) rotate(180)">
    <path id="Trazado_43" data-name="Trazado 43" d="M15.824,14.281.842,3.687a1.99,1.99,0,0,1,.7-3.564L1.854.051a1.99,1.99,0,0,1,1.6.319L15.83,9.191a1.99,1.99,0,0,0,2.334-.017L30.094.408A1.989,1.989,0,0,1,31.768.085h0a1.99,1.99,0,0,1,.693,3.523l-14.3,10.645A1.99,1.99,0,0,1,15.824,14.281Zm0,13.994L.842,17.68a1.99,1.99,0,0,1,.7-3.564l.311-.072a1.991,1.991,0,0,1,1.6.319l12.373,8.82a1.989,1.989,0,0,0,2.333-.017L30.094,14.4a1.99,1.99,0,0,1,1.674-.324h0a1.99,1.99,0,0,1,.693,3.523l-14.3,10.645A1.99,1.99,0,0,1,15.824,28.275Z" fill="none" stroke="#e84133" stroke-linecap="round" stroke-linejoin="round" stroke-width="0.75"/>
  </g>
</svg>
