<svg xmlns="http://www.w3.org/2000/svg" width="18.957" height="17.327" viewBox="0 0 18.957 17.327">
  <g id="XyrKG6" transform="translate(-646.292 -2261.362)">
    <g id="Grupo_147" data-name="Grupo 147" transform="translate(646.799 2261.903)">
      <path id="Trazado_392" data-name="Trazado 392" d="M655.787,2264.343a4.924,4.924,0,0,1,1.69-1.744,4.8,4.8,0,0,1,7.234,3.492,6.043,6.043,0,0,1-.8,3.687,15.294,15.294,0,0,1-2.345,3.051,50.919,50.919,0,0,1-4.238,3.88c-.514.436-1.025.875-1.549,1.323-.36-.307-.717-.605-1.067-.912-1.2-1.055-2.425-2.092-3.6-3.177a19.827,19.827,0,0,1-2.942-3.321,7.577,7.577,0,0,1-1.307-3.089,4.809,4.809,0,0,1,4.091-5.575,4.67,4.67,0,0,1,4.721,2.221Z" transform="translate(-646.799 -2261.903)" fill="none" stroke="#f4e9d7" stroke-miterlimit="10" stroke-width="1"/>
    </g>
  </g>
</svg>
