<svg xmlns="http://www.w3.org/2000/svg" width="291.896" height="172.813" viewBox="0 0 291.896 172.813">
  <g id="Grupo_195" data-name="Grupo 195" transform="translate(-147.479 -233.22)">
    <path id="Trazado_501" data-name="Trazado 501" d="M158.265,258.814a10.756,10.756,0,0,0-5.461,5.324A7.619,7.619,0,0,0,150.62,261a12.345,12.345,0,0,0-3.141-2.183,11.1,11.1,0,0,0,3.141-2.322,8.931,8.931,0,0,0,2.185-3.141,9.051,9.051,0,0,0,2.32,3.141A16.309,16.309,0,0,0,158.265,258.814Z" transform="translate(0 10.863)" fill="#123a25"/>
    <line id="Línea_187" data-name="Línea 187" x2="53.794" transform="translate(163.687 269.608)" fill="none" stroke="#123a25" stroke-linecap="round" stroke-linejoin="round" stroke-width="0.75"/>
    <line id="Línea_188" data-name="Línea 188" x2="53.794" transform="translate(367.294 269.608)" fill="none" stroke="#123a25" stroke-linecap="round" stroke-linejoin="round" stroke-width="0.75"/>
    <path id="Trazado_502" data-name="Trazado 502" d="M340.853,258.814a10.756,10.756,0,0,0-5.461,5.324A7.605,7.605,0,0,0,333.208,261a12.317,12.317,0,0,0-3.141-2.183,11.079,11.079,0,0,0,3.141-2.322,8.912,8.912,0,0,0,2.185-3.141,9.05,9.05,0,0,0,2.32,3.141A16.311,16.311,0,0,0,340.853,258.814Z" transform="translate(98.521 10.863)" fill="#123a25"/>
    <path id="Trazado_503" data-name="Trazado 503" d="M158.265,343.922a10.759,10.759,0,0,0-5.461,5.325,7.609,7.609,0,0,0-2.185-3.141,12.353,12.353,0,0,0-3.141-2.185,11.064,11.064,0,0,0,3.141-2.32,8.945,8.945,0,0,0,2.185-3.141,9.051,9.051,0,0,0,2.32,3.141A16.231,16.231,0,0,0,158.265,343.922Z" transform="translate(0 56.786)" fill="#123a25"/>
    <line id="Línea_189" data-name="Línea 189" x2="257.401" transform="translate(163.687 400.64)" fill="none" stroke="#123a25" stroke-linecap="round" stroke-linejoin="round" stroke-width="0.75"/>
    <path id="Trazado_504" data-name="Trazado 504" d="M340.853,343.922a10.758,10.758,0,0,0-5.461,5.325,7.6,7.6,0,0,0-2.185-3.141,12.325,12.325,0,0,0-3.141-2.185,11.042,11.042,0,0,0,3.141-2.32,8.926,8.926,0,0,0,2.185-3.141,9.051,9.051,0,0,0,2.32,3.141A16.233,16.233,0,0,0,340.853,343.922Z" transform="translate(98.521 56.786)" fill="#123a25"/>
    <g id="Grupo_192" data-name="Grupo 192" transform="translate(164.361 233.22)">
      <g id="Grupo_190" data-name="Grupo 190" transform="translate(0 51.013)">
        <path id="Trazado_505" data-name="Trazado 505" d="M158.444,317.574v-.419h2.927q1.254,0,1.463-.627a5.05,5.05,0,0,0,.209-1.569V268.967a6.49,6.49,0,0,0-.157-1.621q-.157-.573-1.307-.574h-3.135v-.417h19.965a24.732,24.732,0,0,1,9.93,2.037,27.378,27.378,0,0,1,8.258,5.489,25.374,25.374,0,0,1,5.592,8.1,24.588,24.588,0,0,1,2.038,9.983,26.071,26.071,0,0,1-1.881,9.878,25.118,25.118,0,0,1-5.279,8.154,25.467,25.467,0,0,1-7.944,5.541,23.881,23.881,0,0,1-9.878,2.038Zm9.512-50.384v49.444h6.063a27.756,27.756,0,0,0,10.192-1.778,21.568,21.568,0,0,0,12.7-12.7,27.788,27.788,0,0,0,1.778-10.192,28.971,28.971,0,0,0-1.726-10.243A21.179,21.179,0,0,0,192,273.932a22.787,22.787,0,0,0-7.787-4.965,27.788,27.788,0,0,0-10.192-1.777Z" transform="translate(-158.444 -266.354)" fill="#f7f7f2"/>
        <path id="Trazado_506" data-name="Trazado 506" d="M190.163,294.189a17.513,17.513,0,0,1,1.464-7.108,18.808,18.808,0,0,1,9.826-9.826,17.987,17.987,0,0,1,14.216,0,18.808,18.808,0,0,1,9.826,9.826,17.564,17.564,0,0,1,1.464,7.108,18.255,18.255,0,0,1-5.332,12.962,18.907,18.907,0,0,1-5.854,3.972,17.508,17.508,0,0,1-7.108,1.464,17.76,17.76,0,0,1-7.213-1.464,18.808,18.808,0,0,1-9.826-9.826A17.5,17.5,0,0,1,190.163,294.189Zm17.143-17.353a10.43,10.43,0,0,0-5.539,1.464,13.668,13.668,0,0,0-4.026,3.71,16.6,16.6,0,0,0-2.456,5.122,20.276,20.276,0,0,0-.836,5.7,22.72,22.72,0,0,0,.993,6.48,20.293,20.293,0,0,0,2.979,6.117,16.348,16.348,0,0,0,4.808,4.494,11.979,11.979,0,0,0,6.377,1.726,10.42,10.42,0,0,0,5.539-1.464,13.649,13.649,0,0,0,4.026-3.712,15.721,15.721,0,0,0,2.4-5.121,21.609,21.609,0,0,0,.784-5.7,23.074,23.074,0,0,0-.993-6.586A20.4,20.4,0,0,0,218.439,283a16.334,16.334,0,0,0-4.7-4.443A11.912,11.912,0,0,0,207.306,276.836Z" transform="translate(-141.329 -261.262)" fill="#f7f7f2"/>
        <path id="Trazado_507" data-name="Trazado 507" d="M244.074,287.536q0-5.018-1.934-7.214a6.321,6.321,0,0,0-4.965-2.194,14.958,14.958,0,0,0-6.272,1.62,36.153,36.153,0,0,0-7.108,4.546V309.9a6.539,6.539,0,0,0,.155,1.62q.157.577,1.307.576h3.138v.419h-13.38V312.1h2.927q1.254,0,1.463-.627a5.051,5.051,0,0,0,.209-1.569V282.1q0-2.2-1.672-2.2a5.605,5.605,0,0,0-2.822.941v-.419l7.525-4.494q1.148-.628,1.15.628v6.585q1.358-.836,3.5-2.091t4.286-2.457q2.141-1.2,3.92-2.037a7.706,7.706,0,0,1,2.3-.838,9.118,9.118,0,0,1,6.272,2.038,11.8,11.8,0,0,1,3.345,5.07q1.462-.94,3.553-2.143t4.077-2.3q1.984-1.1,3.606-1.883a6.725,6.725,0,0,1,2.143-.784,10.218,10.218,0,0,1,4.808,1.045,9.088,9.088,0,0,1,3.242,2.822,12.139,12.139,0,0,1,1.829,4.077,19.838,19.838,0,0,1,.574,4.808V309.9a6.453,6.453,0,0,0,.157,1.62c.1.385.539.576,1.307.576h3.135v.419H262.472V312.1H265.4c.836,0,1.323-.209,1.464-.627a5.054,5.054,0,0,0,.208-1.569V287.536q0-5.018-1.881-7.214a6.165,6.165,0,0,0-4.913-2.194,14.617,14.617,0,0,0-5.958,1.463,35.328,35.328,0,0,0-6.689,4.077,17.505,17.505,0,0,1,.627,4.808V309.9a6.452,6.452,0,0,0,.157,1.62q.155.577,1.306.576h3.138v.419H239.475V312.1H242.4q1.254,0,1.463-.627a5.051,5.051,0,0,0,.209-1.569Z" transform="translate(-127.92 -261.299)" fill="#f7f7f2"/>
        <path id="Trazado_508" data-name="Trazado 508" d="M295.742,287.536q0-5.018-1.932-7.214a6.324,6.324,0,0,0-4.967-2.194,14.958,14.958,0,0,0-6.271,1.62,36.161,36.161,0,0,0-7.11,4.546V309.9a6.44,6.44,0,0,0,.159,1.62c.1.385.537.576,1.306.576h3.136v.419h-13.38V312.1h2.927c.836,0,1.322-.209,1.464-.627a5.05,5.05,0,0,0,.209-1.569V282.1q0-2.2-1.674-2.2a5.619,5.619,0,0,0-2.822.941v-.419l7.527-4.494q1.15-.628,1.149.628v6.585q1.358-.836,3.5-2.091t4.286-2.457q2.141-1.2,3.92-2.037a7.691,7.691,0,0,1,2.3-.838,10.226,10.226,0,0,1,4.808,1.045,9.1,9.1,0,0,1,3.241,2.822,12.11,12.11,0,0,1,1.829,4.077,19.765,19.765,0,0,1,.574,4.808V309.9a6.44,6.44,0,0,0,.159,1.62q.155.577,1.306.576h3.136v.419h-13.38V312.1h2.927c.836,0,1.322-.209,1.464-.627a5.055,5.055,0,0,0,.208-1.569Z" transform="translate(-100.041 -261.299)" fill="#f7f7f2"/>
        <path id="Trazado_509" data-name="Trazado 509" d="M309.192,280.072h1.045a5.488,5.488,0,0,1,1.045.1,15.339,15.339,0,0,1,1.567-5.382,15.136,15.136,0,0,1,3.242-4.286,14.147,14.147,0,0,1,4.6-2.822,15.491,15.491,0,0,1,5.539-.993,16.528,16.528,0,0,1,5.7.836,10.481,10.481,0,0,1,3.66,2.2,8.825,8.825,0,0,1,2.091,3.031,13.291,13.291,0,0,1,.888,3.345l-4.5,2.3a27.41,27.41,0,0,0,.314-4.077,7.511,7.511,0,0,0-.784-3.5,5.9,5.9,0,0,0-2.51-2.457,10.287,10.287,0,0,0-4.86-.941,14.346,14.346,0,0,0-5.175.941,13.492,13.492,0,0,0-4.337,2.667,15.1,15.1,0,0,0-3.136,4.077,14.225,14.225,0,0,0-1.569,5.173,15.716,15.716,0,0,1,5.122,1.724,17.622,17.622,0,0,1,4.234,3.188,14.924,14.924,0,0,1,2.927,4.34,13.4,13.4,0,0,1-.888,12.334,17,17,0,0,1-5.017,5.07q4.6.1,6.9,2.667a8.214,8.214,0,0,1,2.3,5.592,8.124,8.124,0,0,1-2.248,5.541q-2.249,2.508-6.639,2.508a12.188,12.188,0,0,1-4.754-.941q-2.252-.94-4.445-2.091t-4.494-2.091a12.586,12.586,0,0,0-4.808-.941,7.008,7.008,0,0,0-5.592,2.353,8.394,8.394,0,0,0-2.038,5.7,9.417,9.417,0,0,0,3.4,7.422,11.333,11.333,0,0,0,3.4,1.934,11.027,11.027,0,0,0,3.763.679,8.594,8.594,0,0,0,5.436-1.881q2.4-1.882,2.4-5.853a2.177,2.177,0,0,0-.159-.941c-.1-.209-.4-.314-.888-.314h-3.03v-.417h8.466v.417h-2.717c-.559,0-.873.139-.941.419a4.319,4.319,0,0,0-.1,1.044q-.106,4.286-2.614,6.272A9.157,9.157,0,0,1,303.129,336a11.886,11.886,0,0,1-4.024-.733,12.591,12.591,0,0,1-3.71-2.091,10.031,10.031,0,0,1-2.667-3.346,9.891,9.891,0,0,1-.992-4.494,12,12,0,0,1,.782-4.339,11.057,11.057,0,0,1,2.248-3.606,10.33,10.33,0,0,1,3.555-2.457,11.931,11.931,0,0,1,4.7-.888,14.616,14.616,0,0,1,5.07.941q2.561.942,4.965,2.038t4.757,2.038a12.224,12.224,0,0,0,4.546.941,3.593,3.593,0,0,0,3.241-1.934,6.374,6.374,0,0,0,.836-4.234,7.065,7.065,0,0,0-2.4-4.232q-2.092-1.935-6.689-2.04a17.1,17.1,0,0,1-8.258,2.091,16.71,16.71,0,0,1-6.011-1.1,15.975,15.975,0,0,1-5.07-3.084,15.075,15.075,0,0,1-3.5-4.7,13.541,13.541,0,0,1-1.307-5.958,12.92,12.92,0,0,1,1.358-5.853,15.406,15.406,0,0,1,3.607-4.7,16.62,16.62,0,0,1,5.122-3.084A16.427,16.427,0,0,1,309.192,280.072Zm-11.5,13.695a17.525,17.525,0,0,0,.836,5.279,16.35,16.35,0,0,0,2.456,4.86,13.134,13.134,0,0,0,3.92,3.555,10.072,10.072,0,0,0,5.227,1.358,8.78,8.78,0,0,0,4.494-1.15,11.3,11.3,0,0,0,3.4-3.031,13.994,13.994,0,0,0,2.142-4.18,14.778,14.778,0,0,0,.733-4.5,15.767,15.767,0,0,0-.942-5.279,17.714,17.714,0,0,0-2.613-4.86,13.3,13.3,0,0,0-4.077-3.553,10.456,10.456,0,0,0-5.227-1.359,8,8,0,0,0-4.391,1.2,12.253,12.253,0,0,0-3.239,3.033,13.015,13.015,0,0,0-2.038,4.128A15.8,15.8,0,0,0,297.694,293.767Zm41.079,21.011a6.439,6.439,0,0,0,.159,1.62c.1.385.539.576,1.307.576h3.135v.419H329.995v-.419h2.925q1.254,0,1.464-.627a5.05,5.05,0,0,0,.209-1.569v-27.8q0-2.2-1.674-2.2a5.609,5.609,0,0,0-2.82.941V285.3l7.525-4.494q1.15-.628,1.149.628Z" transform="translate(-86.522 -266.171)" fill="#f7f7f2"/>
        <path id="Trazado_510" data-name="Trazado 510" d="M265.119,309.9a6.449,6.449,0,0,0,.157,1.62q.157.577,1.306.576h3.136v.419H256.339V312.1h2.927q1.254,0,1.463-.627a5.005,5.005,0,0,0,.209-1.569V282.1q0-2.2-1.672-2.2a5.609,5.609,0,0,0-2.822.941v-.419l7.525-4.494q1.148-.628,1.15.628Z" transform="translate(-105.622 -261.299)" fill="#f7f7f2"/>
        <path id="Trazado_511" data-name="Trazado 511" d="M265.573,273.543a8.818,8.818,0,0,0-4.473,4.362,6.214,6.214,0,0,0-1.789-2.571,10.075,10.075,0,0,0-2.573-1.791,9.022,9.022,0,0,0,2.573-1.9,7.306,7.306,0,0,0,1.789-2.573,7.42,7.42,0,0,0,1.9,2.573A13.347,13.347,0,0,0,265.573,273.543Z" transform="translate(-105.406 -264.888)" fill="#f7f7f2"/>
      </g>
      <g id="Grupo_191" data-name="Grupo 191" transform="translate(60.767)">
        <path id="Trazado_512" data-name="Trazado 512" d="M197.914,284.023h5.436q1.254,0,1.463-.628a5.046,5.046,0,0,0,.209-1.567V235.834a5.043,5.043,0,0,0-.209-1.569q-.21-.628-1.463-.628h-5.436v-.417h11.709l21.533,44.007,18.712-44.007h9.094v.417h-2.927c-.836,0-1.326.209-1.464.628a5,5,0,0,0-.209,1.569v45.993a6.453,6.453,0,0,0,.157,1.62c.1.383.539.576,1.307.576h3.136v.417H244.85v-.417h2.927q1.254,0,1.463-.628a5.046,5.046,0,0,0,.209-1.567V236.356l-20.384,47.98L205.858,236.67v45.157a6.451,6.451,0,0,0,.157,1.62c.1.383.539.576,1.307.576h5.644v.417H197.914Z" transform="translate(-197.914 -233.22)" fill="#f7f7f2"/>
        <path id="Trazado_513" data-name="Trazado 513" d="M296.1,247.613a7.958,7.958,0,0,0-5.644-2.4,8.744,8.744,0,0,0-4.234,1.255,31.361,31.361,0,0,0-4.651,3.241,77.508,77.508,0,0,0-8.468,9.356q-4.182,5.385-8.571,10.19v7.632a6.589,6.589,0,0,0,.157,1.567q.155.628,1.306.628h3.136v.417H255.751v-.417h2.927q1.254,0,1.463-.628a5.047,5.047,0,0,0,.209-1.567v-3.241a36.37,36.37,0,0,1-6.011,4.443,12.058,12.058,0,0,1-6.115,1.724,10.208,10.208,0,0,1-6.429-2.143,7.269,7.269,0,0,1-2.77-6.115,8.012,8.012,0,0,1,1.569-5.122,13.375,13.375,0,0,1,3.971-3.346,31.1,31.1,0,0,1,5.122-2.3q2.718-.94,5.122-1.934a13.677,13.677,0,0,0,3.972-2.4,4.753,4.753,0,0,0,1.569-3.71A9.608,9.608,0,0,0,258,246.568a6.676,6.676,0,0,0-4.965-2.091,10.53,10.53,0,0,0-2.665.314,6.463,6.463,0,0,0-2.3,1.15,8.4,8.4,0,0,0-2.038,2.4,26.836,26.836,0,0,0-1.881,3.972l-2.3-3.241q1.15-.73,2.927-1.829t3.66-2.091q1.88-.993,3.449-1.724a6.44,6.44,0,0,1,2.2-.731,9.979,9.979,0,0,1,3.867.784,9.6,9.6,0,0,1,3.346,2.352,12,12,0,0,1,2.352,3.815,14.028,14.028,0,0,1,.888,5.175v12.23l-4.181,4.389V255.557a10.839,10.839,0,0,1-4.6,3.293,60.059,60.059,0,0,0-5.489,2.456,15.807,15.807,0,0,0-4.6,3.5q-1.938,2.143-1.935,6.22a7.873,7.873,0,0,0,1.621,5.068q1.619,2.041,5.384,2.038A10.419,10.419,0,0,0,257,275.784a45.025,45.025,0,0,0,6.377-5.958q3.24-3.607,6.637-7.944t6.951-8.206v-4.6q0-2.194-1.672-2.194a5.614,5.614,0,0,0-2.822.941V247.4l7.527-4.5q1.148-.626,1.149.628v5.644a39.309,39.309,0,0,1,6.586-4.913,12.471,12.471,0,0,1,6.271-1.881,7.592,7.592,0,0,1,2.2.314Zm-19.129,9.2q.836-1.044,2.038-2.457a23.188,23.188,0,0,1,2.143-2.248v24.775a6.45,6.45,0,0,0,.157,1.62c.1.383.539.576,1.307.576h3.136v.417H272.371v-.417H275.3c.836,0,1.323-.209,1.464-.628a5.051,5.051,0,0,0,.208-1.567Z" transform="translate(-175.731 -228.274)" fill="#f7f7f2"/>
        <path id="Trazado_514" data-name="Trazado 514" d="M285.9,276.772a6.449,6.449,0,0,0,.157,1.62q.157.575,1.306.576H290.5v.417H277.115v-.417h2.927q1.254,0,1.463-.628a5,5,0,0,0,.209-1.567V248.966q0-2.194-1.672-2.194a5.614,5.614,0,0,0-2.822.941v-.419l7.525-4.5q1.15-.626,1.15.628Z" transform="translate(-155.179 -228.164)" fill="#f7f7f2"/>
        <path id="Trazado_515" data-name="Trazado 515" d="M286.349,240.41a8.815,8.815,0,0,0-4.473,4.36,6.224,6.224,0,0,0-1.789-2.571,10.106,10.106,0,0,0-2.573-1.789,9.059,9.059,0,0,0,2.573-1.9,7.316,7.316,0,0,0,1.789-2.571,7.422,7.422,0,0,0,1.9,2.571A13.244,13.244,0,0,0,286.349,240.41Z" transform="translate(-154.963 -231.753)" fill="#f7f7f2"/>
      </g>
    </g>
    <g id="Grupo_194" data-name="Grupo 194" transform="translate(212.198 347.068)">
      <g id="Grupo_193" data-name="Grupo 193">
        <path id="Trazado_516" data-name="Trazado 516" d="M213.081,322.141q0-4.069-1.569-5.849a5.124,5.124,0,0,0-4.026-1.78,12.138,12.138,0,0,0-5.085,1.313,29.4,29.4,0,0,0-5.764,3.687V340.28a5.327,5.327,0,0,0,.126,1.313c.086.311.439.466,1.061.466h2.542v.339H189.516v-.339h2.374c.679,0,1.073-.169,1.187-.51a4.083,4.083,0,0,0,.169-1.27V317.733q0-1.778-1.356-1.78a4.554,4.554,0,0,0-2.288.764v-.34l6.1-3.644q.931-.508.931.508v5.341q1.1-.679,2.839-1.7t3.476-1.992q1.737-.972,3.178-1.654a6.257,6.257,0,0,1,1.864-.677,7.4,7.4,0,0,1,5.087,1.652,9.557,9.557,0,0,1,2.713,4.111q1.185-.762,2.881-1.737t3.305-1.864q1.612-.891,2.925-1.526a5.388,5.388,0,0,1,1.738-.636,8.275,8.275,0,0,1,3.9.848,7.366,7.366,0,0,1,2.628,2.288A9.809,9.809,0,0,1,234.652,319a16.094,16.094,0,0,1,.466,3.9V340.28a5.168,5.168,0,0,0,.128,1.313c.083.311.437.466,1.059.466h2.542v.339H228v-.339h2.372q1.018,0,1.189-.51a4.135,4.135,0,0,0,.168-1.27V322.141q0-4.069-1.524-5.849a5,5,0,0,0-3.984-1.78,11.834,11.834,0,0,0-4.831,1.187A28.683,28.683,0,0,0,215.961,319a14.121,14.121,0,0,1,.51,3.9V340.28a5.326,5.326,0,0,0,.126,1.313c.086.311.437.466,1.061.466H220.2v.339H209.35v-.339h2.374c.679,0,1.072-.169,1.187-.51a4.084,4.084,0,0,0,.169-1.27Z" transform="translate(-189.516 -304.256)" fill="#f7f7f2"/>
        <path id="Trazado_517" data-name="Trazado 517" d="M243.886,334.262a46.08,46.08,0,0,1-6.443,5.975,10.909,10.909,0,0,1-6.609,2.416,8.274,8.274,0,0,1-5.213-1.737,5.9,5.9,0,0,1-2.246-4.959,6.5,6.5,0,0,1,1.272-4.154,10.831,10.831,0,0,1,3.221-2.711,25.211,25.211,0,0,1,4.152-1.866q2.2-.762,4.154-1.567a11.111,11.111,0,0,0,3.221-1.951,3.849,3.849,0,0,0,1.272-3.008,7.788,7.788,0,0,0-1.908-5,5.413,5.413,0,0,0-4.026-1.7,8.555,8.555,0,0,0-2.162.254,5.245,5.245,0,0,0-1.864.933,6.819,6.819,0,0,0-1.654,1.949,21.878,21.878,0,0,0-1.526,3.221l-1.864-2.628q.931-.591,2.374-1.483t2.967-1.7q1.524-.806,2.8-1.4a5.233,5.233,0,0,1,1.781-.593,8.07,8.07,0,0,1,3.136.636,7.771,7.771,0,0,1,2.711,1.908,9.692,9.692,0,0,1,1.908,3.093,11.392,11.392,0,0,1,.721,4.2c0,.51-.085.721-.256.636a5.7,5.7,0,0,1-.719-.467,2.8,2.8,0,0,0-1.018-.465c-.368-.086-.776.156-1.229.719a8.452,8.452,0,0,1-3.687,2.713q-2.332.933-4.534,2.034a13.208,13.208,0,0,0-3.815,2.841,7.3,7.3,0,0,0-1.61,5.128,6.4,6.4,0,0,0,1.315,4.111q1.312,1.651,4.365,1.652a8.446,8.446,0,0,0,5.17-2.16,51.541,51.541,0,0,0,5.68-5.384Zm.169-.677v6.7a5.43,5.43,0,0,0,.126,1.27c.086.34.439.51,1.061.51h2.542v.339H236.935v-.339h2.374c.679,0,1.073-.169,1.187-.51a4.084,4.084,0,0,0,.169-1.27v-3.221Zm0-11.19v11.613l-3.39,3.559V320.7Z" transform="translate(-171.247 -304.256)" fill="#f7f7f2"/>
        <path id="Trazado_518" data-name="Trazado 518" d="M249.028,315.644h4.577v-3.305q0-1.781-1.356-1.78a4.556,4.556,0,0,0-2.288.762v-.339l6.1-3.644c.622-.34.933-.169.933.508v7.8h9.07v.339H257v21.7A6.737,6.737,0,0,0,258.479,342a4.955,4.955,0,0,0,4.111,1.864,7.209,7.209,0,0,0,3.01-.721,6.632,6.632,0,0,0,2.5-1.906,6.192,6.192,0,0,1-3.053,3.051,9.56,9.56,0,0,1-4.152,1.016,7.23,7.23,0,0,1-3.349-.72,6.38,6.38,0,0,1-2.288-1.949,7.853,7.853,0,0,1-1.272-2.8,14.144,14.144,0,0,1-.382-3.347V315.982h-4.577Z" transform="translate(-157.404 -307.168)" fill="#f7f7f2"/>
        <path id="Trazado_519" data-name="Trazado 519" d="M260.865,328.155a17.949,17.949,0,0,1,1.059-6.315,14.723,14.723,0,0,1,2.925-4.873,13,13,0,0,1,9.661-4.238,12.341,12.341,0,0,1,4.409.805,13.44,13.44,0,0,1,3.772,2.162,15.175,15.175,0,0,1,2.881,3.136,11.642,11.642,0,0,1,1.738,3.815l-22.63,7.627a15.29,15.29,0,0,0,1.694,5.044,12.141,12.141,0,0,0,2.713,3.349,10.057,10.057,0,0,0,3.349,1.864,11.835,11.835,0,0,0,3.687.593,13.035,13.035,0,0,0,6.4-1.61,7.956,7.956,0,0,0,3.857-4.068l.254.169a10.346,10.346,0,0,1-4.619,5.255,13.556,13.556,0,0,1-6.823,1.866,14.21,14.21,0,0,1-10.214-4.238,14.353,14.353,0,0,1-3.008-4.62A14.823,14.823,0,0,1,260.865,328.155Zm11.527-14.748a7.311,7.311,0,0,0-4.026,2.372,13.986,13.986,0,0,0-2.585,4.28,20.221,20.221,0,0,0-1.229,5.044,17.52,17.52,0,0,0,.043,4.747l18.9-6.442a15.3,15.3,0,0,0-1.483-4.493,12.149,12.149,0,0,0-2.543-3.39,8.985,8.985,0,0,0-3.305-1.949A7.1,7.1,0,0,0,272.392,313.407Z" transform="translate(-151.017 -304.167)" fill="#f7f7f2"/>
        <path id="Trazado_520" data-name="Trazado 520" d="M301.581,334.262a46.162,46.162,0,0,1-6.442,5.975,10.914,10.914,0,0,1-6.611,2.416,8.28,8.28,0,0,1-5.213-1.737,5.9,5.9,0,0,1-2.246-4.959,6.5,6.5,0,0,1,1.272-4.154,10.831,10.831,0,0,1,3.221-2.711,25.211,25.211,0,0,1,4.152-1.866q2.2-.762,4.155-1.567a11.1,11.1,0,0,0,3.219-1.951,3.85,3.85,0,0,0,1.273-3.008,7.8,7.8,0,0,0-1.909-5,5.413,5.413,0,0,0-4.026-1.7,8.543,8.543,0,0,0-2.16.254,5.252,5.252,0,0,0-1.866.933,6.817,6.817,0,0,0-1.652,1.949,21.707,21.707,0,0,0-1.527,3.221l-1.864-2.628q.933-.591,2.374-1.483t2.967-1.7q1.524-.806,2.8-1.4a5.217,5.217,0,0,1,1.78-.593,8.065,8.065,0,0,1,3.136.636,7.79,7.79,0,0,1,2.713,1.908,9.715,9.715,0,0,1,1.906,3.093,11.391,11.391,0,0,1,.722,4.2c0,.51-.086.721-.256.636a5.582,5.582,0,0,1-.721-.467,2.8,2.8,0,0,0-1.016-.465c-.37-.086-.777.156-1.23.719a8.452,8.452,0,0,1-3.687,2.713q-2.33.933-4.534,2.034a13.2,13.2,0,0,0-3.814,2.841,7.294,7.294,0,0,0-1.61,5.128,6.4,6.4,0,0,0,1.313,4.111q1.314,1.651,4.365,1.652a8.446,8.446,0,0,0,5.171-2.16,51.675,51.675,0,0,0,5.678-5.384Zm.171-.677v6.7a5.349,5.349,0,0,0,.126,1.27q.127.51,1.059.51h2.543v.339H294.631v-.339h2.374c.677,0,1.072-.169,1.185-.51a4.078,4.078,0,0,0,.171-1.27v-3.221Zm0-11.19v11.613l-3.39,3.559V320.7Z" transform="translate(-140.116 -304.256)" fill="#f7f7f2"/>
        <path id="Trazado_521" data-name="Trazado 521" d="M248.053,340.265a5.241,5.241,0,0,0,.128,1.313c.085.311.436.466,1.058.466h2.542v.339H240.937v-.339h2.372c.677,0,1.072-.169,1.185-.508a4.1,4.1,0,0,0,.169-1.272V317.731q0-1.781-1.355-1.78a4.549,4.549,0,0,0-2.288.764v-.34l6.1-3.643q.931-.508.931.51Z" transform="translate(-161.77 -304.256)" fill="#f7f7f2"/>
        <path id="Trazado_522" data-name="Trazado 522" d="M248.421,310.8a7.141,7.141,0,0,0-3.626,3.533,5.037,5.037,0,0,0-1.449-2.083,8.185,8.185,0,0,0-2.085-1.45,7.353,7.353,0,0,0,2.085-1.541,5.924,5.924,0,0,0,1.449-2.085,6.011,6.011,0,0,0,1.541,2.085A10.82,10.82,0,0,0,248.421,310.8Z" transform="translate(-161.595 -307.165)" fill="#f7f7f2"/>
      </g>
    </g>
  </g>
</svg>
