<svg xmlns="http://www.w3.org/2000/svg" width="33.708" height="36.628" viewBox="0 0 33.708 36.628">
  <g id="Grupo_216" data-name="Grupo 216" transform="translate(-1765.486 -778.986)">
    <path id="Trazado_42" data-name="Trazado 42" d="M1769.067,808.238q-3.208,0-3.206-2.918a3.245,3.245,0,0,1,1.748-2.625l12.253-5.834-12.253-5.54q-1.751-1.458-1.748-2.335a3.33,3.33,0,0,1,.871-2.19,2.933,2.933,0,0,1,2.335-1.019,12.418,12.418,0,0,1,2.044.583l9.623,7.875-1.457-11.377a3.265,3.265,0,0,1,1.022-2.625,3.671,3.671,0,0,1,2.48-.874q3.208,0,3.206,3.209l-2.329,11.96,10.209-7.878a4.684,4.684,0,0,1,2.039-.584,2.521,2.521,0,0,1,2.189,1.022,3.746,3.746,0,0,1,.726,2.187,3.331,3.331,0,0,1-1.458,2.625l-12.248,5.253,11.958,5.54a2.8,2.8,0,0,1,1.748,2.625q0,2.626-2.916,2.628a2.823,2.823,0,0,1-2.039-.583l-10.209-7.585,2.038,12.251q-.586,3.213-3.5,3.209a3.59,3.59,0,0,1-2.038-.874,2.166,2.166,0,0,1-.877-2.335l1.754-12.544-9.629,7.878A3.152,3.152,0,0,1,1769.067,808.238Z" transform="translate(0)" fill="none" stroke="#e84133" stroke-linecap="round" stroke-linejoin="round" stroke-width="0.75"/>
  </g>
</svg>
