<svg xmlns="http://www.w3.org/2000/svg" width="151.065" height="135.864" viewBox="0 0 151.065 135.864">
  <g id="XyrKG6" transform="translate(-646.404 -2261.562)">
    <g id="Grupo_147" data-name="Grupo 147" transform="translate(646.799 2261.903)">
      <path id="Trazado_392" data-name="Trazado 392" d="M722.073,2282.34a41.23,41.23,0,0,1,14.156-14.6c24.432-15.12,57.3.745,60.587,29.24,1.279,11.066-1.386,21.263-6.695,30.885-5.246,9.51-12.243,17.683-19.64,25.545-11.023,11.713-23.244,22.118-35.489,32.5-4.3,3.647-8.582,7.325-12.972,11.075-3.014-2.574-6.005-5.071-8.934-7.639-10.082-8.839-20.308-17.522-30.161-26.61a166.069,166.069,0,0,1-24.64-27.809c-5.412-7.876-9.384-16.322-10.946-25.868-3.674-22.471,11.8-43.96,34.262-46.7,16.859-2.053,30.08,4.482,39.535,18.6C721.391,2281.339,721.652,2281.719,722.073,2282.34Z" transform="translate(-646.799 -2261.903)" fill="none" stroke="#f4e9d7" stroke-miterlimit="10" stroke-width="0.68"/>
    </g>
  </g>
</svg>
