<svg xmlns="http://www.w3.org/2000/svg" width="38.059" height="34.339" viewBox="0 0 38.059 34.339">
  <g id="XyrKG6" transform="translate(0.389 0.454)">
    <g id="Grupo_14" data-name="Grupo 14" transform="translate(0 0)">
      <path id="Trazado_22" data-name="Trazado 22" d="M1667.419,791.281a10.23,10.23,0,0,1,3.512-3.623,9.976,9.976,0,0,1,15.031,7.254,12.561,12.561,0,0,1-1.661,7.662,31.808,31.808,0,0,1-4.873,6.337,105.765,105.765,0,0,1-8.8,8.062c-1.068.9-2.129,1.817-3.218,2.747-.748-.639-1.49-1.258-2.216-1.9-2.5-2.193-5.038-4.347-7.483-6.6a41.163,41.163,0,0,1-6.113-6.9,15.734,15.734,0,0,1-2.715-6.418,9.992,9.992,0,0,1,8.5-11.585,9.7,9.7,0,0,1,9.808,4.615C1667.25,791.033,1667.314,791.127,1667.419,791.281Z" transform="translate(-1648.745 -786.211)" fill="none" stroke="#e84133" stroke-linecap="round" stroke-linejoin="round" stroke-width="0.75"/>
    </g>
  </g>
</svg>
