<svg id="Logotipo" xmlns="http://www.w3.org/2000/svg" width="262.172" height="65.335" viewBox="0 0 262.172 65.335">
  <g id="Grupo_201" data-name="Grupo 201" transform="translate(-601.043 -914)">
    <path id="Trazado_523" data-name="Trazado 523" d="M472.332,718.589a5.7,5.7,0,0,0-1.019-3.8,3.331,3.331,0,0,0-2.615-1.156,7.891,7.891,0,0,0-3.3.853,19.058,19.058,0,0,0-3.743,2.4v13.489a3.412,3.412,0,0,0,.082.853c.056.2.284.3.688.3h1.652v.22h-7.047v-.22h1.542c.44,0,.7-.11.77-.331a2.621,2.621,0,0,0,.111-.825V715.726q0-1.155-.881-1.156a2.962,2.962,0,0,0-1.486.495v-.22l3.964-2.367q.6-.33.605.33v3.469q.715-.441,1.844-1.1t2.258-1.294q1.127-.632,2.064-1.074a4.056,4.056,0,0,1,1.211-.44,4.81,4.81,0,0,1,3.3,1.073,6.214,6.214,0,0,1,1.761,2.67q.771-.5,1.871-1.128t2.148-1.211q1.045-.579,1.9-.991a3.516,3.516,0,0,1,1.129-.413,5.375,5.375,0,0,1,2.532.551,4.768,4.768,0,0,1,1.707,1.486,6.351,6.351,0,0,1,.963,2.147,10.4,10.4,0,0,1,.3,2.533v11.286a3.357,3.357,0,0,0,.083.853c.055.2.284.3.689.3h1.651v.22h-7.047v-.22h1.541c.441,0,.7-.11.772-.331a2.686,2.686,0,0,0,.109-.825V718.589a5.823,5.823,0,0,0-.99-3.8,3.25,3.25,0,0,0-2.588-1.156,7.694,7.694,0,0,0-3.139.771,18.626,18.626,0,0,0-3.523,2.147,9.21,9.21,0,0,1,.331,2.533v11.286a3.412,3.412,0,0,0,.082.853q.082.3.688.3h1.652v.22h-7.047v-.22h1.542c.44,0,.7-.11.77-.331a2.62,2.62,0,0,0,.111-.825Z" transform="translate(221.017 247.312)" fill="#123a25"/>
    <path id="Trazado_524" data-name="Trazado 524" d="M504.207,726.462a29.985,29.985,0,0,1-4.185,3.881,7.087,7.087,0,0,1-4.294,1.569,5.378,5.378,0,0,1-3.386-1.128,3.833,3.833,0,0,1-1.459-3.221,4.223,4.223,0,0,1,.827-2.7A7.031,7.031,0,0,1,493.8,723.1a16.391,16.391,0,0,1,2.7-1.212q1.431-.5,2.7-1.018a7.216,7.216,0,0,0,2.092-1.267,2.5,2.5,0,0,0,.826-1.954,5.07,5.07,0,0,0-1.239-3.248,3.516,3.516,0,0,0-2.616-1.1,5.558,5.558,0,0,0-1.4.165,3.411,3.411,0,0,0-1.212.606,4.427,4.427,0,0,0-1.073,1.266,14.212,14.212,0,0,0-.991,2.092l-1.211-1.707q.6-.384,1.542-.963t1.926-1.1q.991-.523,1.817-.909a3.4,3.4,0,0,1,1.156-.385,5.238,5.238,0,0,1,2.037.413,5.059,5.059,0,0,1,1.762,1.239,6.274,6.274,0,0,1,1.238,2.009,7.378,7.378,0,0,1,.469,2.725c0,.331-.056.468-.166.413a3.7,3.7,0,0,1-.468-.3,1.815,1.815,0,0,0-.66-.3c-.239-.056-.505.1-.8.467a5.493,5.493,0,0,1-2.394,1.762q-1.515.606-2.946,1.321a8.576,8.576,0,0,0-2.477,1.845,4.742,4.742,0,0,0-1.046,3.331,4.155,4.155,0,0,0,.853,2.67,3.415,3.415,0,0,0,2.835,1.073,5.486,5.486,0,0,0,3.359-1.4,33.477,33.477,0,0,0,3.688-3.5Zm.11-.44v4.349a3.474,3.474,0,0,0,.082.825c.056.221.284.331.688.331h1.652v.22h-7.047v-.22h1.542c.44,0,.7-.11.77-.331a2.62,2.62,0,0,0,.111-.825v-2.092Zm0-7.268V726.3l-2.2,2.312V717.653Z" transform="translate(221.017 247.312)" fill="#123a25"/>
    <path id="Trazado_525" data-name="Trazado 525" d="M516.538,712.478h2.972v-2.147q0-1.156-.881-1.156a2.965,2.965,0,0,0-1.486.495v-.22l3.964-2.367c.4-.221.6-.11.6.33v5.065H527.6v.22h-5.892v14.094a4.381,4.381,0,0,0,.964,2.808,3.221,3.221,0,0,0,2.67,1.211,4.679,4.679,0,0,0,1.955-.468,4.292,4.292,0,0,0,1.624-1.238,4.01,4.01,0,0,1-1.982,1.981,6.2,6.2,0,0,1-2.7.661,4.693,4.693,0,0,1-2.175-.468,4.127,4.127,0,0,1-1.486-1.266,5.1,5.1,0,0,1-.827-1.817,9.187,9.187,0,0,1-.248-2.174V712.7h-2.972Z" transform="translate(221.017 247.312)" fill="#123a25"/>
    <path id="Trazado_526" data-name="Trazado 526" d="M528.375,722.553a11.637,11.637,0,0,1,.688-4.1,9.579,9.579,0,0,1,1.9-3.165,8.444,8.444,0,0,1,6.276-2.753,8.01,8.01,0,0,1,2.863.523,8.715,8.715,0,0,1,2.45,1.4,9.856,9.856,0,0,1,1.871,2.037,7.522,7.522,0,0,1,1.129,2.478l-14.7,4.954a9.955,9.955,0,0,0,1.1,3.276,7.866,7.866,0,0,0,1.761,2.175,6.542,6.542,0,0,0,2.175,1.211,7.688,7.688,0,0,0,2.4.385,8.469,8.469,0,0,0,4.156-1.046,5.167,5.167,0,0,0,2.505-2.642l.165.11a6.719,6.719,0,0,1-3,3.413,8.808,8.808,0,0,1-4.433,1.212,9.23,9.23,0,0,1-6.633-2.753,9.326,9.326,0,0,1-1.955-3A9.645,9.645,0,0,1,528.375,722.553Zm7.487-9.579a4.745,4.745,0,0,0-2.615,1.541,9.065,9.065,0,0,0-1.679,2.78,13.183,13.183,0,0,0-.8,3.276,11.421,11.421,0,0,0,.028,3.083l12.277-4.184a9.967,9.967,0,0,0-.963-2.918,7.911,7.911,0,0,0-1.652-2.2,5.844,5.844,0,0,0-2.147-1.266A4.609,4.609,0,0,0,535.862,712.974Z" transform="translate(221.017 247.312)" fill="#123a25"/>
    <path id="Trazado_527" data-name="Trazado 527" d="M561.9,726.462a29.983,29.983,0,0,1-4.185,3.881,7.087,7.087,0,0,1-4.294,1.569,5.373,5.373,0,0,1-3.385-1.128,3.83,3.83,0,0,1-1.459-3.221,4.222,4.222,0,0,1,.826-2.7A7.034,7.034,0,0,1,551.5,723.1a16.344,16.344,0,0,1,2.7-1.212q1.431-.5,2.7-1.018a7.216,7.216,0,0,0,2.092-1.267,2.5,2.5,0,0,0,.826-1.954,5.059,5.059,0,0,0-1.239-3.248,3.516,3.516,0,0,0-2.615-1.1,5.56,5.56,0,0,0-1.4.165,3.41,3.41,0,0,0-1.212.606,4.441,4.441,0,0,0-1.073,1.266,14.208,14.208,0,0,0-.991,2.092l-1.211-1.707q.6-.384,1.542-.963t1.927-1.1q.99-.523,1.816-.909a3.4,3.4,0,0,1,1.156-.385,5.243,5.243,0,0,1,2.038.413,5.047,5.047,0,0,1,1.761,1.239,6.3,6.3,0,0,1,1.239,2.009,7.4,7.4,0,0,1,.468,2.725c0,.331-.055.468-.166.413a3.7,3.7,0,0,1-.467-.3,1.82,1.82,0,0,0-.661-.3c-.239-.056-.505.1-.8.467a5.49,5.49,0,0,1-2.395,1.762q-1.515.606-2.945,1.321a8.581,8.581,0,0,0-2.478,1.845,4.742,4.742,0,0,0-1.046,3.331,4.15,4.15,0,0,0,.854,2.67,3.413,3.413,0,0,0,2.835,1.073,5.486,5.486,0,0,0,3.358-1.4,33.575,33.575,0,0,0,3.689-3.5Zm.11-.44v4.349a3.526,3.526,0,0,0,.082.825c.056.221.285.331.689.331h1.651v.22h-7.047v-.22h1.542c.441,0,.7-.11.771-.331a2.652,2.652,0,0,0,.11-.825v-2.092Zm0-7.268V726.3l-2.2,2.312V717.653Z" transform="translate(221.017 247.312)" fill="#123a25"/>
    <path id="Trazado_532" data-name="Trazado 532" d="M513.069,730.361a3.411,3.411,0,0,0,.082.853q.082.3.688.3h1.651v.22h-7.043v-.22h1.54c.441,0,.7-.11.771-.33a2.664,2.664,0,0,0,.11-.826V715.725q0-1.156-.881-1.156a2.952,2.952,0,0,0-1.485.5v-.221l3.962-2.366q.6-.33.6.331Z" transform="translate(221.017 247.312)" fill="#123a25"/>
  </g>
  <path id="Trazado_533" data-name="Trazado 533" d="M513.421,709.332a4.636,4.636,0,0,0-2.354,2.3,3.265,3.265,0,0,0-.942-1.353,5.3,5.3,0,0,0-1.354-.942,4.762,4.762,0,0,0,1.354-1,3.838,3.838,0,0,0,.942-1.354,3.9,3.9,0,0,0,1,1.354A7.02,7.02,0,0,0,513.421,709.332Z" transform="translate(-379.392 -666.688)" fill="#123a25"/>
  <path id="Trazado_534" data-name="Trazado 534" d="M414.1,722.713a6.99,6.99,0,0,0-3.547,3.458,4.93,4.93,0,0,0-1.419-2.039,8.018,8.018,0,0,0-2.039-1.419,7.169,7.169,0,0,0,2.039-1.508,5.794,5.794,0,0,0,1.419-2.039,5.88,5.88,0,0,0,1.508,2.039A10.52,10.52,0,0,0,414.1,722.713Z" transform="translate(-406.983 -666.688)" fill="#e84133"/>
  <line id="Línea_190" data-name="Línea 190" x2="62.858" transform="translate(10.642 55.981)" fill="none" stroke="#e84133" stroke-linecap="round" stroke-linejoin="round" stroke-width="0.75"/>
  <path id="Trazado_535" data-name="Trazado 535" d="M661.8,722.624a6.994,6.994,0,0,0,3.547-3.458,4.92,4.92,0,0,0,1.419,2.039,8,8,0,0,0,2.039,1.419,7.168,7.168,0,0,0-2.039,1.508,5.78,5.78,0,0,0-1.419,2.039,5.879,5.879,0,0,0-1.508-2.039A10.513,10.513,0,0,0,661.8,722.624Z" transform="translate(-406.983 -666.688)" fill="#e84133"/>
  <line id="Línea_191" data-name="Línea 191" x1="61.797" transform="translate(189.5 55.981)" fill="none" stroke="#e84133" stroke-linecap="round" stroke-linejoin="round" stroke-width="0.75"/>
  <g id="Grupo_200" data-name="Grupo 200" transform="translate(-406.983 -666.688)">
    <g id="Grupo_198" data-name="Grupo 198">
      <path id="Trazado_536" data-name="Trazado 536" d="M502.323,699.957v-.272h1.9q.814,0,.95-.407a3.278,3.278,0,0,0,.136-1.018V668.385a4.2,4.2,0,0,0-.1-1.052c-.068-.248-.351-.374-.849-.374h-2.036v-.271h12.968a16.048,16.048,0,0,1,6.45,1.324,17.78,17.78,0,0,1,5.364,3.564,16.475,16.475,0,0,1,3.632,5.263,15.966,15.966,0,0,1,1.324,6.483,16.939,16.939,0,0,1-1.222,6.417,16.309,16.309,0,0,1-3.429,5.295,16.524,16.524,0,0,1-5.16,3.6,15.5,15.5,0,0,1-6.416,1.324Zm6.178-32.726v32.115h3.938a18.05,18.05,0,0,0,6.62-1.154,14.016,14.016,0,0,0,8.249-8.249,18.054,18.054,0,0,0,1.155-6.621,18.821,18.821,0,0,0-1.121-6.653,13.756,13.756,0,0,0-3.225-5.059,14.815,14.815,0,0,0-5.058-3.225,18.07,18.07,0,0,0-6.62-1.154Z" fill="#123a25"/>
      <path id="Trazado_537" data-name="Trazado 537" d="M534.042,688.076a11.38,11.38,0,0,1,.951-4.618,12.216,12.216,0,0,1,6.382-6.382,11.694,11.694,0,0,1,9.234,0,12.216,12.216,0,0,1,6.382,6.382,11.413,11.413,0,0,1,.951,4.618,11.857,11.857,0,0,1-3.463,8.418,12.264,12.264,0,0,1-3.8,2.58,11.372,11.372,0,0,1-4.617.951,11.536,11.536,0,0,1-4.685-.951,12.216,12.216,0,0,1-6.382-6.382A11.367,11.367,0,0,1,534.042,688.076ZM545.177,676.8a6.784,6.784,0,0,0-3.6.951,8.894,8.894,0,0,0-2.615,2.411,10.773,10.773,0,0,0-1.595,3.327,13.157,13.157,0,0,0-.543,3.7,14.759,14.759,0,0,0,.645,4.21,13.186,13.186,0,0,0,1.935,3.972,10.62,10.62,0,0,0,3.123,2.919,7.772,7.772,0,0,0,4.142,1.121,6.768,6.768,0,0,0,3.6-.951,8.875,8.875,0,0,0,2.615-2.41,10.225,10.225,0,0,0,1.561-3.327,14.03,14.03,0,0,0,.509-3.7,14.975,14.975,0,0,0-.645-4.277,13.267,13.267,0,0,0-1.9-3.939,10.606,10.606,0,0,0-3.055-2.885A7.738,7.738,0,0,0,545.177,676.8Z" fill="#123a25"/>
      <path id="Trazado_538" data-name="Trazado 538" d="M577.768,683.73q0-3.259-1.256-4.685a4.1,4.1,0,0,0-3.225-1.426,9.715,9.715,0,0,0-4.074,1.052,23.491,23.491,0,0,0-4.617,2.954V698.26a4.246,4.246,0,0,0,.1,1.052q.1.373.849.373h2.038v.272h-8.691v-.272h1.9q.814,0,.95-.407a3.279,3.279,0,0,0,.136-1.018V680.2q0-1.425-1.086-1.425a3.64,3.64,0,0,0-1.833.611v-.272l4.888-2.92q.746-.406.747.408v4.277q.882-.541,2.274-1.358t2.784-1.6q1.391-.78,2.546-1.324a4.991,4.991,0,0,1,1.494-.543,5.923,5.923,0,0,1,4.074,1.324,7.653,7.653,0,0,1,2.173,3.292q.949-.61,2.308-1.392t2.648-1.493q1.289-.712,2.342-1.222a4.342,4.342,0,0,1,1.392-.509,6.648,6.648,0,0,1,3.123.678,5.915,5.915,0,0,1,2.106,1.834,7.866,7.866,0,0,1,1.188,2.648,12.871,12.871,0,0,1,.373,3.123V698.26a4.191,4.191,0,0,0,.1,1.052c.068.249.35.373.849.373h2.036v.272h-8.69v-.272h1.9c.543,0,.859-.136.951-.407a3.282,3.282,0,0,0,.135-1.018V683.73q0-3.259-1.222-4.685a4,4,0,0,0-3.191-1.426,9.48,9.48,0,0,0-3.87.951,22.838,22.838,0,0,0-4.345,2.648,11.36,11.36,0,0,1,.407,3.123V698.26a4.191,4.191,0,0,0,.1,1.052q.1.373.848.373h2.038v.272h-8.691v-.272h1.9q.814,0,.95-.407a3.279,3.279,0,0,0,.136-1.018Z" fill="#123a25"/>
      <path id="Trazado_539" data-name="Trazado 539" d="M629.436,683.73q0-3.259-1.255-4.685a4.106,4.106,0,0,0-3.226-1.426,9.715,9.715,0,0,0-4.073,1.052,23.5,23.5,0,0,0-4.618,2.954V698.26a4.183,4.183,0,0,0,.1,1.052c.068.249.349.373.848.373h2.037v.272h-8.691v-.272h1.9c.543,0,.859-.136.951-.407a3.279,3.279,0,0,0,.136-1.018V680.2q0-1.425-1.087-1.425a3.649,3.649,0,0,0-1.833.611v-.272l4.889-2.92q.747-.406.746.408v4.277q.882-.541,2.275-1.358t2.784-1.6q1.391-.78,2.546-1.324a4.982,4.982,0,0,1,1.494-.543,6.654,6.654,0,0,1,3.123.678,5.921,5.921,0,0,1,2.1,1.834,7.847,7.847,0,0,1,1.188,2.648,12.823,12.823,0,0,1,.373,3.123V698.26a4.183,4.183,0,0,0,.1,1.052c.067.249.349.373.848.373h2.037v.272h-8.691v-.272h1.9c.543,0,.859-.136.951-.407a3.282,3.282,0,0,0,.135-1.018Z" fill="#123a25"/>
      <path id="Trazado_540" data-name="Trazado 540" d="M646.953,675.718h.679a3.561,3.561,0,0,1,.679.068,9.964,9.964,0,0,1,1.018-3.5,9.83,9.83,0,0,1,2.106-2.784,9.17,9.17,0,0,1,2.987-1.832,10.042,10.042,0,0,1,3.6-.646,10.759,10.759,0,0,1,3.7.543A6.808,6.808,0,0,1,664.1,669a5.72,5.72,0,0,1,1.358,1.968,8.643,8.643,0,0,1,.577,2.173l-2.92,1.494a17.816,17.816,0,0,0,.2-2.648,4.88,4.88,0,0,0-.509-2.275,3.831,3.831,0,0,0-1.63-1.6,6.681,6.681,0,0,0-3.157-.611,9.318,9.318,0,0,0-3.361.611,8.764,8.764,0,0,0-2.817,1.732,9.84,9.84,0,0,0-2.037,2.648,9.252,9.252,0,0,0-1.019,3.361,10.16,10.16,0,0,1,3.327,1.12,11.419,11.419,0,0,1,2.75,2.071,9.687,9.687,0,0,1,1.9,2.818,8.708,8.708,0,0,1-.577,8.012,11.037,11.037,0,0,1-3.259,3.292,5.913,5.913,0,0,1,4.481,1.732,5.337,5.337,0,0,1,1.494,3.632,5.275,5.275,0,0,1-1.46,3.6,5.493,5.493,0,0,1-4.312,1.63,7.9,7.9,0,0,1-3.088-.612q-1.463-.61-2.887-1.358t-2.919-1.358a8.175,8.175,0,0,0-3.123-.611,4.555,4.555,0,0,0-3.632,1.528,5.454,5.454,0,0,0-1.324,3.7,6.116,6.116,0,0,0,2.206,4.821,7.34,7.34,0,0,0,2.207,1.256,7.162,7.162,0,0,0,2.444.441,5.587,5.587,0,0,0,3.531-1.221,4.536,4.536,0,0,0,1.562-3.8,1.414,1.414,0,0,0-.1-.611q-.1-.2-.577-.2H645.46v-.271h5.5v.271h-1.765q-.544,0-.611.272a2.809,2.809,0,0,0-.068.679,5.051,5.051,0,0,1-1.7,4.074,5.952,5.952,0,0,1-3.8,1.29,7.721,7.721,0,0,1-2.614-.476,8.2,8.2,0,0,1-2.41-1.357,6.527,6.527,0,0,1-1.732-2.173,6.432,6.432,0,0,1-.644-2.92,7.784,7.784,0,0,1,.508-2.817,7.175,7.175,0,0,1,1.46-2.343,6.71,6.71,0,0,1,2.309-1.6,7.749,7.749,0,0,1,3.055-.576,9.493,9.493,0,0,1,3.293.611q1.664.61,3.225,1.324t3.09,1.324a7.94,7.94,0,0,0,2.953.611,2.333,2.333,0,0,0,2.1-1.257,4.137,4.137,0,0,0,.543-2.749,4.591,4.591,0,0,0-1.562-2.75,6.5,6.5,0,0,0-4.345-1.324,11.1,11.1,0,0,1-5.364,1.358,10.853,10.853,0,0,1-3.9-.713,10.34,10.34,0,0,1-3.293-2,9.788,9.788,0,0,1-2.274-3.055,8.8,8.8,0,0,1-.849-3.87,8.392,8.392,0,0,1,.882-3.8,10,10,0,0,1,2.343-3.055,10.775,10.775,0,0,1,3.327-2A10.648,10.648,0,0,1,646.953,675.718Zm-7.468,8.895a11.375,11.375,0,0,0,.543,3.428,10.625,10.625,0,0,0,1.595,3.158,8.54,8.54,0,0,0,2.546,2.308,6.543,6.543,0,0,0,3.4.883,5.7,5.7,0,0,0,2.919-.747,7.352,7.352,0,0,0,2.208-1.969,9.081,9.081,0,0,0,1.391-2.716,9.593,9.593,0,0,0,.476-2.92,10.25,10.25,0,0,0-.612-3.429,11.506,11.506,0,0,0-1.7-3.157,8.663,8.663,0,0,0-2.648-2.308,6.792,6.792,0,0,0-3.4-.883,5.188,5.188,0,0,0-2.852.781,7.938,7.938,0,0,0-2.1,1.969,8.458,8.458,0,0,0-1.324,2.682A10.248,10.248,0,0,0,639.485,684.613Zm26.682,13.647a4.183,4.183,0,0,0,.1,1.052c.068.249.35.373.849.373h2.036v.272h-8.69v-.272h1.9q.815,0,.951-.407a3.277,3.277,0,0,0,.136-1.018V680.2q0-1.425-1.087-1.425a3.643,3.643,0,0,0-1.832.611v-.272l4.888-2.92q.747-.406.746.408Z" fill="#123a25"/>
      <path id="Trazado_541" data-name="Trazado 541" d="M605.921,698.26a4.191,4.191,0,0,0,.1,1.052q.1.373.848.373h2.037v.272h-8.69v-.272h1.9q.814,0,.95-.407a3.248,3.248,0,0,0,.136-1.018V680.2q0-1.425-1.086-1.425a3.643,3.643,0,0,0-1.833.611v-.272l4.888-2.92q.746-.406.747.408Z" fill="#123a25"/>
      <path id="Trazado_542" data-name="Trazado 542" d="M606.356,672.311a5.725,5.725,0,0,0-2.905,2.832,4.036,4.036,0,0,0-1.162-1.67,6.565,6.565,0,0,0-1.671-1.162,5.884,5.884,0,0,0,1.671-1.235,4.751,4.751,0,0,0,1.162-1.67,4.816,4.816,0,0,0,1.234,1.67A8.676,8.676,0,0,0,606.356,672.311Z" fill="#123a25"/>
    </g>
    <g id="Grupo_199" data-name="Grupo 199">
      <path id="Trazado_543" data-name="Trazado 543" d="M406.983,699.685h3.531q.814,0,.95-.407a3.278,3.278,0,0,0,.136-1.018V668.385a3.274,3.274,0,0,0-.136-1.018q-.137-.408-.95-.408h-3.531v-.271h7.605l13.986,28.584,12.153-28.584h5.908v.271h-1.9q-.816,0-.951.408a3.244,3.244,0,0,0-.136,1.018V698.26a4.191,4.191,0,0,0,.1,1.052c.068.249.35.373.849.373h2.037v.272h-9.167v-.272h1.9q.814,0,.95-.407a3.278,3.278,0,0,0,.136-1.018V668.725l-13.24,31.164-15.073-30.96V698.26a4.191,4.191,0,0,0,.1,1.052c.068.249.35.373.849.373h3.666v.272h-9.777Z" fill="#123a25"/>
      <path id="Trazado_544" data-name="Trazado 544" d="M485.165,679.249a5.169,5.169,0,0,0-3.666-1.562,5.679,5.679,0,0,0-2.75.815,20.433,20.433,0,0,0-3.021,2.1,50.439,50.439,0,0,0-5.5,6.078q-2.717,3.5-5.567,6.619v4.957a4.285,4.285,0,0,0,.1,1.018q.1.406.849.407h2.037v.272h-8.69v-.272h1.9q.814,0,.95-.407a3.278,3.278,0,0,0,.136-1.018v-2.1a23.678,23.678,0,0,1-3.9,2.886,7.832,7.832,0,0,1-3.972,1.12,6.63,6.63,0,0,1-4.176-1.392,4.724,4.724,0,0,1-1.8-3.972,5.208,5.208,0,0,1,1.018-3.327,8.7,8.7,0,0,1,2.58-2.173,20.2,20.2,0,0,1,3.327-1.493q1.766-.612,3.327-1.256a8.9,8.9,0,0,0,2.58-1.562,3.087,3.087,0,0,0,1.019-2.41,6.238,6.238,0,0,0-1.528-4.006,4.336,4.336,0,0,0-3.225-1.358,6.842,6.842,0,0,0-1.731.2,4.233,4.233,0,0,0-1.494.747,5.475,5.475,0,0,0-1.324,1.562,17.431,17.431,0,0,0-1.222,2.58l-1.494-2.105q.747-.474,1.9-1.188t2.377-1.358q1.221-.645,2.24-1.12a4.182,4.182,0,0,1,1.426-.475,6.467,6.467,0,0,1,2.512.509,6.243,6.243,0,0,1,2.173,1.527,7.809,7.809,0,0,1,1.528,2.479,9.11,9.11,0,0,1,.577,3.36v7.945l-2.716,2.851v-10.32a7.054,7.054,0,0,1-2.987,2.139,38.743,38.743,0,0,0-3.565,1.6,10.285,10.285,0,0,0-2.988,2.275,5.834,5.834,0,0,0-1.256,4.04,5.114,5.114,0,0,0,1.053,3.292,4.207,4.207,0,0,0,3.5,1.324,6.774,6.774,0,0,0,4.074-1.527,29.3,29.3,0,0,0,4.142-3.87q2.1-2.343,4.311-5.161t4.515-5.329V680.2q0-1.425-1.086-1.425a3.646,3.646,0,0,0-1.833.611v-.272l4.888-2.92q.747-.406.747.408v3.666a25.531,25.531,0,0,1,4.278-3.191,8.1,8.1,0,0,1,4.073-1.222,4.932,4.932,0,0,1,1.426.2Zm-12.425,5.975q.543-.678,1.324-1.6a15.064,15.064,0,0,1,1.392-1.46V698.26a4.189,4.189,0,0,0,.1,1.052c.068.249.35.373.849.373h2.037v.272h-8.691v-.272h1.9q.814,0,.95-.407a3.248,3.248,0,0,0,.136-1.018Z" fill="#123a25"/>
      <path id="Trazado_545" data-name="Trazado 545" d="M491.887,698.26a4.189,4.189,0,0,0,.1,1.052c.068.249.35.373.848.373h2.037v.272h-8.69v-.272h1.9q.814,0,.95-.407a3.248,3.248,0,0,0,.136-1.018V680.2q0-1.425-1.086-1.425a3.643,3.643,0,0,0-1.833.611v-.272l4.888-2.92q.747-.406.747.408Z" fill="#123a25"/>
      <path id="Trazado_546" data-name="Trazado 546" d="M492.322,672.311a5.725,5.725,0,0,0-2.9,2.832,4.036,4.036,0,0,0-1.162-1.67,6.565,6.565,0,0,0-1.671-1.162,5.884,5.884,0,0,0,1.671-1.235,4.751,4.751,0,0,0,1.162-1.67,4.82,4.82,0,0,0,1.235,1.67A8.642,8.642,0,0,0,492.322,672.311Z" fill="#123a25"/>
    </g>
  </g>
</svg>
