<svg xmlns="http://www.w3.org/2000/svg" width="112.483" height="144.493" viewBox="0 0 112.483 144.493">
  <g id="Grupo_260" data-name="Grupo 260" transform="translate(-484.335 -242.139)">
    <path id="Trazado_378" data-name="Trazado 378" d="M590.551,333.627q-37.3,17.337-53.322,51.986-5.3-16-21.328-30.658-16-14.655-30.659-21.328,14.7-6.657,30.659-22.664,16-16,21.328-30.658,6.688,16,22.664,30.658Q575.889,325.649,590.551,333.627Z" fill="none" stroke="#e84133" stroke-miterlimit="10" stroke-width="0.75"/>
    <path id="Trazado_379" data-name="Trazado 379" d="M595.986,265.447q-15.581,7.244-22.274,21.717-2.217-6.682-8.91-12.807a50.272,50.272,0,0,0-12.808-8.91q6.139-2.781,12.808-9.468t8.91-12.807a36.924,36.924,0,0,0,9.467,12.807A66.227,66.227,0,0,0,595.986,265.447Z" fill="none" stroke="#e84133" stroke-miterlimit="10" stroke-width="0.75"/>
  </g>
</svg>
