<svg xmlns="http://www.w3.org/2000/svg" width="103.476" height="112.579" viewBox="0 0 103.476 112.579">
  <path id="Trazado_42" data-name="Trazado 42" d="M1775.853,869.369q-10,0-9.992-9.1,0-4.531,5.45-8.182l38.193-18.183-38.193-17.268q-5.458-4.545-5.45-7.277a10.379,10.379,0,0,1,2.716-6.825,9.14,9.14,0,0,1,7.277-3.176,38.685,38.685,0,0,1,6.371,1.819l29.994,24.546-4.543-35.461q0-5.456,3.185-8.181a11.441,11.441,0,0,1,7.73-2.724q10,0,9.992,10l-7.259,37.28,31.821-24.555a14.6,14.6,0,0,1,6.354-1.82,7.857,7.857,0,0,1,6.825,3.186,11.676,11.676,0,0,1,2.263,6.816q0,4.569-4.544,8.181l-38.176,16.372,37.271,17.269q5.458,2.73,5.449,8.182,0,8.185-9.088,8.19c-3.028,0-5.153-.6-6.354-1.818L1821.324,843l6.354,38.184q-1.828,10.015-10.915,10c-1.81,0-3.934-.9-6.354-2.724a6.753,6.753,0,0,1-2.733-7.277l5.466-39.1-30.011,24.555A9.824,9.824,0,0,1,1775.853,869.369Z" transform="translate(-1765.486 -778.986)" fill="none" stroke="#e84133" stroke-linecap="round" stroke-linejoin="round" stroke-width="0.75"/>
</svg>
