<svg xmlns="http://www.w3.org/2000/svg" width="340.48" height="201.578" viewBox="0 0 340.48 201.578">
  <g id="Grupo_276" data-name="Grupo 276" transform="translate(-464 -957.726)">
    <g id="Grupo_261" data-name="Grupo 261" transform="translate(464 957.726)">
      <g id="Grupo_206" data-name="Grupo 206" transform="translate(0)">
        <path id="Trazado_428" data-name="Trazado 428" d="M236.41,942.124a12.553,12.553,0,0,0-6.37,6.211,8.851,8.851,0,0,0-2.548-3.662,14.394,14.394,0,0,0-3.662-2.548,12.882,12.882,0,0,0,3.662-2.707,10.4,10.4,0,0,0,2.548-3.663,10.551,10.551,0,0,0,2.708,3.663A18.924,18.924,0,0,0,236.41,942.124Z" transform="translate(-223.829 -899.599)" fill="#e84133"/>
        <line id="Línea_160" data-name="Línea 160" x2="62.748" transform="translate(18.905 42.445)" fill="none" stroke="#e84133" stroke-linecap="round" stroke-linejoin="round" stroke-width="1.394"/>
        <line id="Línea_161" data-name="Línea 161" x2="62.748" transform="translate(256.402 42.445)" fill="none" stroke="#e84133" stroke-linecap="round" stroke-linejoin="round" stroke-width="1.394"/>
        <path id="Trazado_429" data-name="Trazado 429" d="M575.733,942.124a12.554,12.554,0,0,0-6.37,6.211,8.85,8.85,0,0,0-2.548-3.662,14.393,14.393,0,0,0-3.662-2.548,12.881,12.881,0,0,0,3.662-2.707,10.4,10.4,0,0,0,2.548-3.663,10.551,10.551,0,0,0,2.708,3.663A18.921,18.921,0,0,0,575.733,942.124Z" transform="translate(-235.252 -899.599)" fill="#e84133"/>
        <path id="Trazado_430" data-name="Trazado 430" d="M236.41,1100.291a12.554,12.554,0,0,0-6.37,6.211,8.845,8.845,0,0,0-2.548-3.662,14.364,14.364,0,0,0-3.662-2.548,12.866,12.866,0,0,0,3.662-2.708,10.386,10.386,0,0,0,2.548-3.662,10.548,10.548,0,0,0,2.708,3.662A18.886,18.886,0,0,0,236.41,1100.291Z" transform="translate(-223.829 -904.924)" fill="#e84133"/>
        <line id="Línea_162" data-name="Línea 162" x2="300.246" transform="translate(18.905 195.288)" fill="none" stroke="#e84133" stroke-linecap="round" stroke-linejoin="round" stroke-width="1.394"/>
        <path id="Trazado_431" data-name="Trazado 431" d="M575.733,1100.291a12.554,12.554,0,0,0-6.37,6.211,8.844,8.844,0,0,0-2.548-3.662,14.363,14.363,0,0,0-3.662-2.548,12.865,12.865,0,0,0,3.662-2.708,10.384,10.384,0,0,0,2.548-3.662,10.548,10.548,0,0,0,2.708,3.662A18.884,18.884,0,0,0,575.733,1100.291Z" transform="translate(-235.252 -904.924)" fill="#e84133"/>
        <g id="Grupo_162" data-name="Grupo 162" transform="translate(19.69)">
          <g id="Grupo_160" data-name="Grupo 160" transform="translate(0 59.503)">
            <path id="Trazado_432" data-name="Trazado 432" d="M244.2,1019.663v-.489h3.414c.976,0,1.543-.244,1.707-.731a5.871,5.871,0,0,0,.245-1.829v-53.65a7.527,7.527,0,0,0-.184-1.89c-.122-.446-.63-.671-1.524-.671H244.2v-.487h23.289a28.829,28.829,0,0,1,11.583,2.377,31.927,31.927,0,0,1,9.633,6.4,29.6,29.6,0,0,1,6.523,9.451,28.692,28.692,0,0,1,2.377,11.643,30.426,30.426,0,0,1-2.195,11.523,29.274,29.274,0,0,1-6.157,9.511,29.711,29.711,0,0,1-9.267,6.463,27.847,27.847,0,0,1-11.523,2.378Zm11.1-58.772v57.674h7.073a32.409,32.409,0,0,0,11.888-2.073,25.156,25.156,0,0,0,14.815-14.815,32.433,32.433,0,0,0,2.073-11.889,33.811,33.811,0,0,0-2.012-11.949,24.75,24.75,0,0,0-5.791-9.084,26.61,26.61,0,0,0-9.085-5.791,32.429,32.429,0,0,0-11.888-2.073Z" transform="translate(-244.205 -959.916)" fill="#f7f7f2"/>
            <path id="Trazado_433" data-name="Trazado 433" d="M303.153,998.914a20.458,20.458,0,0,1,1.707-8.291,21.939,21.939,0,0,1,11.462-11.462,20.994,20.994,0,0,1,16.582,0,21.945,21.945,0,0,1,11.463,11.462,20.49,20.49,0,0,1,1.707,8.291,21.285,21.285,0,0,1-6.218,15.119,22.04,22.04,0,0,1-6.828,4.633,20.411,20.411,0,0,1-8.291,1.708,20.707,20.707,0,0,1-8.414-1.708,21.935,21.935,0,0,1-11.462-11.461A20.448,20.448,0,0,1,303.153,998.914Zm20-20.241a12.184,12.184,0,0,0-6.462,1.708,15.938,15.938,0,0,0-4.694,4.329,19.334,19.334,0,0,0-2.865,5.974,23.668,23.668,0,0,0-.975,6.644,26.472,26.472,0,0,0,1.158,7.56,23.708,23.708,0,0,0,3.475,7.135,19.127,19.127,0,0,0,5.609,5.242,13.978,13.978,0,0,0,7.439,2.012,12.162,12.162,0,0,0,6.462-1.708,15.908,15.908,0,0,0,4.694-4.329,18.353,18.353,0,0,0,2.8-5.973,25.167,25.167,0,0,0,.914-6.645,26.907,26.907,0,0,0-1.159-7.682,23.809,23.809,0,0,0-3.413-7.073,19.055,19.055,0,0,0-5.488-5.182A13.893,13.893,0,0,0,323.149,978.674Z" transform="translate(-246.189 -960.506)" fill="#f7f7f2"/>
            <path id="Trazado_434" data-name="Trazado 434" d="M383.232,991.107q0-5.853-2.255-8.414a7.372,7.372,0,0,0-5.791-2.56,17.445,17.445,0,0,0-7.316,1.889,42.18,42.18,0,0,0-8.292,5.3V1017.2a7.6,7.6,0,0,0,.183,1.889c.122.448.629.671,1.524.671h3.659v.489H349.336v-.489h3.413c.976,0,1.543-.243,1.707-.73a5.872,5.872,0,0,0,.244-1.829V984.766q0-2.56-1.951-2.56a6.538,6.538,0,0,0-3.291,1.1v-.489l8.779-5.243q1.339-.731,1.34.733v7.681q1.584-.974,4.085-2.439t5-2.865q2.5-1.4,4.573-2.377a8.97,8.97,0,0,1,2.684-.975,10.634,10.634,0,0,1,7.315,2.377,13.738,13.738,0,0,1,3.9,5.913q1.706-1.1,4.146-2.5t4.755-2.682q2.315-1.28,4.206-2.2a7.826,7.826,0,0,1,2.5-.913,11.947,11.947,0,0,1,5.609,1.218,10.623,10.623,0,0,1,3.781,3.293,14.105,14.105,0,0,1,2.133,4.755,23.126,23.126,0,0,1,.671,5.608v25a7.552,7.552,0,0,0,.183,1.889c.123.448.63.671,1.525.671H420.3v.489H404.693v-.489h3.414c.976,0,1.543-.243,1.707-.73a5.874,5.874,0,0,0,.244-1.829V991.107q0-5.853-2.195-8.414a7.191,7.191,0,0,0-5.73-2.56,17.024,17.024,0,0,0-6.951,1.706,41.077,41.077,0,0,0-7.8,4.755,20.392,20.392,0,0,1,.731,5.608v25a7.491,7.491,0,0,0,.185,1.889c.121.448.628.671,1.523.671h3.659v.489H377.868v-.489h3.413c.976,0,1.543-.243,1.707-.73a5.875,5.875,0,0,0,.244-1.829Z" transform="translate(-247.744 -960.502)" fill="#f7f7f2"/>
            <path id="Trazado_435" data-name="Trazado 435" d="M479.253,991.107q0-5.853-2.255-8.414a7.371,7.371,0,0,0-5.792-2.56,17.448,17.448,0,0,0-7.315,1.889,42.237,42.237,0,0,0-8.292,5.3V1017.2a7.545,7.545,0,0,0,.184,1.889c.123.448.628.671,1.525.671h3.658v.489H445.357v-.489h3.413c.976,0,1.543-.243,1.708-.73a5.906,5.906,0,0,0,.242-1.829V984.766q0-2.56-1.951-2.56a6.541,6.541,0,0,0-3.291,1.1v-.489l8.779-5.243q1.341-.731,1.34.733v7.681q1.584-.974,4.086-2.439t5-2.865q2.5-1.4,4.571-2.377a8.979,8.979,0,0,1,2.684-.975,11.949,11.949,0,0,1,5.609,1.218,10.627,10.627,0,0,1,3.78,3.293,14.088,14.088,0,0,1,2.133,4.755,23.033,23.033,0,0,1,.672,5.608v25a7.5,7.5,0,0,0,.184,1.889c.121.448.628.671,1.523.671H489.5v.489H473.889v-.489H477.3c.975,0,1.542-.243,1.707-.73a5.874,5.874,0,0,0,.244-1.829Z" transform="translate(-250.977 -960.502)" fill="#f7f7f2"/>
            <path id="Trazado_436" data-name="Trazado 436" d="M512.279,976.153h1.22a6.379,6.379,0,0,1,1.219.122A17.882,17.882,0,0,1,516.545,970a17.65,17.65,0,0,1,3.781-5,16.456,16.456,0,0,1,5.364-3.291,18.036,18.036,0,0,1,6.462-1.16,19.305,19.305,0,0,1,6.646.975,12.233,12.233,0,0,1,4.268,2.562,10.284,10.284,0,0,1,2.438,3.536,15.464,15.464,0,0,1,1.037,3.9L541.3,974.2a31.925,31.925,0,0,0,.366-4.755,8.755,8.755,0,0,0-.915-4.084,6.872,6.872,0,0,0-2.926-2.866,12,12,0,0,0-5.671-1.1,16.716,16.716,0,0,0-6.035,1.1,15.734,15.734,0,0,0-5.06,3.11,17.661,17.661,0,0,0-3.659,4.755,16.593,16.593,0,0,0-1.829,6.036,18.276,18.276,0,0,1,5.975,2.011,20.59,20.59,0,0,1,4.939,3.719,17.4,17.4,0,0,1,3.413,5.061,15.638,15.638,0,0,1-1.036,14.388,19.81,19.81,0,0,1-5.853,5.913q5.365.123,8.049,3.111a9.583,9.583,0,0,1,2.682,6.522,9.474,9.474,0,0,1-2.622,6.463q-2.624,2.927-7.743,2.927a14.218,14.218,0,0,1-5.547-1.1q-2.624-1.1-5.183-2.439t-5.242-2.438a14.678,14.678,0,0,0-5.608-1.1,8.181,8.181,0,0,0-6.524,2.743,9.8,9.8,0,0,0-2.378,6.645,10.987,10.987,0,0,0,3.963,8.658,13.193,13.193,0,0,0,3.963,2.255,12.864,12.864,0,0,0,4.389.791,10.029,10.029,0,0,0,6.341-2.193q2.8-2.2,2.8-6.828a2.551,2.551,0,0,0-.184-1.1q-.184-.365-1.036-.366H509.6v-.487h9.875v.487H516.3q-.978,0-1.1.489a5.063,5.063,0,0,0-.122,1.219q-.123,5-3.049,7.316a10.689,10.689,0,0,1-6.828,2.317,13.845,13.845,0,0,1-4.694-.855,14.719,14.719,0,0,1-4.329-2.437,11.726,11.726,0,0,1-3.109-3.9,11.548,11.548,0,0,1-1.158-5.243,13.983,13.983,0,0,1,.913-5.06,12.884,12.884,0,0,1,2.623-4.206,12.013,12.013,0,0,1,4.146-2.866,13.912,13.912,0,0,1,5.487-1.036,17.059,17.059,0,0,1,5.914,1.1q2.984,1.1,5.791,2.377t5.548,2.377a14.253,14.253,0,0,0,5.3,1.1,4.189,4.189,0,0,0,3.779-2.256,7.429,7.429,0,0,0,.976-4.938,8.248,8.248,0,0,0-2.8-4.937q-2.441-2.257-7.8-2.379a19.939,19.939,0,0,1-9.632,2.439,19.465,19.465,0,0,1-7.011-1.28,18.6,18.6,0,0,1-5.914-3.6,17.579,17.579,0,0,1-4.085-5.487,15.82,15.82,0,0,1-1.524-6.95,15.052,15.052,0,0,1,1.585-6.828,17.988,17.988,0,0,1,4.206-5.488,19.389,19.389,0,0,1,5.975-3.6A19.142,19.142,0,0,1,512.279,976.153Zm-13.413,15.974a20.428,20.428,0,0,0,.976,6.157,19.047,19.047,0,0,0,2.864,5.67,15.322,15.322,0,0,0,4.573,4.146,11.747,11.747,0,0,0,6.1,1.585,10.244,10.244,0,0,0,5.242-1.342,13.177,13.177,0,0,0,3.964-3.536,16.312,16.312,0,0,0,2.5-4.877,17.28,17.28,0,0,0,.853-5.243,18.428,18.428,0,0,0-1.1-6.157,20.664,20.664,0,0,0-3.049-5.67,15.539,15.539,0,0,0-4.755-4.146,12.2,12.2,0,0,0-6.1-1.586,9.327,9.327,0,0,0-5.122,1.4,14.277,14.277,0,0,0-3.779,3.537,15.2,15.2,0,0,0-2.377,4.816A18.388,18.388,0,0,0,498.866,992.127Zm47.918,24.508a7.488,7.488,0,0,0,.185,1.889c.122.448.628.671,1.524.671h3.657v.489H536.542v-.489h3.413q1.464,0,1.708-.73a5.9,5.9,0,0,0,.243-1.829V984.2q0-2.56-1.951-2.56a6.545,6.545,0,0,0-3.291,1.1v-.489l8.779-5.243q1.341-.73,1.34.733Z" transform="translate(-252.544 -959.937)" fill="#f7f7f2"/>
            <path id="Trazado_437" data-name="Trazado 437" d="M436.376,1017.2a7.552,7.552,0,0,0,.183,1.889c.122.448.628.671,1.524.671h3.659v.489H426.134v-.489h3.414q1.463,0,1.707-.73a5.871,5.871,0,0,0,.245-1.829V984.766q0-2.56-1.951-2.56a6.544,6.544,0,0,0-3.292,1.1v-.489l8.779-5.243q1.339-.731,1.341.733Z" transform="translate(-250.33 -960.502)" fill="#f7f7f2"/>
            <path id="Trazado_438" data-name="Trazado 438" d="M437.182,970.183a10.29,10.29,0,0,0-5.217,5.087,7.251,7.251,0,0,0-2.086-3,11.809,11.809,0,0,0-3-2.087,10.568,10.568,0,0,0,3-2.217,8.527,8.527,0,0,0,2.086-3,8.663,8.663,0,0,0,2.218,3A15.538,15.538,0,0,0,437.182,970.183Z" transform="translate(-250.355 -960.086)" fill="#f7f7f2"/>
          </g>
          <g id="Grupo_161" data-name="Grupo 161" transform="translate(70.884)">
            <path id="Trazado_439" data-name="Trazado 439" d="M317.558,957.6h6.34c.976,0,1.543-.245,1.707-.732a5.865,5.865,0,0,0,.244-1.828v-53.65a5.864,5.864,0,0,0-.244-1.829c-.163-.488-.731-.732-1.707-.732h-6.34v-.487h13.656l25.117,51.333,21.826-51.333h10.608v.487h-3.414q-1.463,0-1.707.732a5.808,5.808,0,0,0-.244,1.829v53.65a7.6,7.6,0,0,0,.183,1.889c.123.447.629.671,1.525.671h3.658v.488H372.3V957.6h3.414q1.463,0,1.707-.732a5.9,5.9,0,0,0,.244-1.828V902l-23.777,55.967-27.069-55.6v52.675a7.553,7.553,0,0,0,.183,1.889c.123.447.629.671,1.525.671h6.585v.488H317.558Z" transform="translate(-317.558 -898.34)" fill="#f7f7f2"/>
            <path id="Trazado_440" data-name="Trazado 440" d="M460.533,921.471a9.286,9.286,0,0,0-6.584-2.8,10.2,10.2,0,0,0-4.939,1.462,36.7,36.7,0,0,0-5.426,3.779,90.551,90.551,0,0,0-9.876,10.914q-4.879,6.282-10,11.888v8.9a7.71,7.71,0,0,0,.183,1.828q.183.73,1.524.732h3.659v.488H413.467v-.488h3.414c.976,0,1.543-.245,1.707-.732a5.863,5.863,0,0,0,.245-1.828v-3.78a42.545,42.545,0,0,1-7.012,5.182,14.063,14.063,0,0,1-7.132,2.011,11.9,11.9,0,0,1-7.5-2.5,8.479,8.479,0,0,1-3.231-7.133,9.356,9.356,0,0,1,1.829-5.975,15.583,15.583,0,0,1,4.633-3.9,36.233,36.233,0,0,1,5.975-2.682q3.17-1.1,5.975-2.255a15.981,15.981,0,0,0,4.634-2.8,5.546,5.546,0,0,0,1.829-4.329q-.367-4.756-2.743-7.194a7.792,7.792,0,0,0-5.792-2.438,12.286,12.286,0,0,0-3.11.365,7.594,7.594,0,0,0-2.682,1.342,9.8,9.8,0,0,0-2.378,2.8,31.325,31.325,0,0,0-2.195,4.633l-2.683-3.779q1.341-.852,3.414-2.134t4.267-2.439q2.195-1.158,4.024-2.012a7.521,7.521,0,0,1,2.561-.853,11.624,11.624,0,0,1,4.511.914,11.2,11.2,0,0,1,3.9,2.744,13.983,13.983,0,0,1,2.744,4.451,16.378,16.378,0,0,1,1.036,6.035v14.267l-4.877,5.121V930.737a12.644,12.644,0,0,1-5.365,3.842q-3.292,1.28-6.4,2.864a18.459,18.459,0,0,0-5.365,4.086q-2.258,2.5-2.256,7.255a9.2,9.2,0,0,0,1.89,5.913q1.889,2.379,6.28,2.377a12.162,12.162,0,0,0,7.315-2.742,52.6,52.6,0,0,0,7.438-6.95q3.779-4.206,7.743-9.268t8.108-9.571v-5.365q0-2.561-1.951-2.561a6.549,6.549,0,0,0-3.291,1.1v-.488l8.779-5.243q1.339-.731,1.34.733V923.3a45.788,45.788,0,0,1,7.682-5.73,14.545,14.545,0,0,1,7.315-2.2,8.883,8.883,0,0,1,2.561.366ZM438.219,932.2q.974-1.217,2.378-2.866a27.025,27.025,0,0,1,2.5-2.622v28.9a7.547,7.547,0,0,0,.184,1.889q.183.671,1.524.671h3.658v.488H432.854v-.488h3.414c.976,0,1.543-.245,1.708-.732a5.87,5.87,0,0,0,.243-1.828Z" transform="translate(-320.13 -898.913)" fill="#f7f7f2"/>
            <path id="Trazado_441" data-name="Trazado 441" d="M474.986,955.625a7.6,7.6,0,0,0,.183,1.889c.123.447.629.671,1.525.671h3.658v.488H464.744v-.488h3.414c.976,0,1.543-.245,1.707-.732a5.867,5.867,0,0,0,.244-1.828V923.191q0-2.561-1.951-2.561a6.549,6.549,0,0,0-3.291,1.1v-.488L473.646,916q1.339-.731,1.34.733Z" transform="translate(-322.513 -898.926)" fill="#f7f7f2"/>
            <path id="Trazado_442" data-name="Trazado 442" d="M475.793,908.608a10.278,10.278,0,0,0-5.217,5.087,7.244,7.244,0,0,0-2.087-3,11.754,11.754,0,0,0-3-2.087,10.551,10.551,0,0,0,3-2.218,8.522,8.522,0,0,0,2.087-3,8.647,8.647,0,0,0,2.217,3A15.471,15.471,0,0,0,475.793,908.608Z" transform="translate(-322.538 -898.51)" fill="#f7f7f2"/>
          </g>
        </g>
        <g id="Grupo_164" data-name="Grupo 164" transform="translate(21.617 132.799)">
          <g id="Grupo_163" data-name="Grupo 163">
            <path id="Trazado_443" data-name="Trazado 443" d="M273.685,1056.964q0-4.746-1.829-6.822a5.977,5.977,0,0,0-4.7-2.076,14.164,14.164,0,0,0-5.933,1.532,34.2,34.2,0,0,0-6.722,4.3v24.223a6.193,6.193,0,0,0,.147,1.532c.1.363.511.544,1.237.544h2.966v.4H246.2v-.4h2.769c.791,0,1.25-.2,1.384-.594a4.726,4.726,0,0,0,.2-1.482v-26.3q0-2.076-1.582-2.076a5.32,5.32,0,0,0-2.669.89v-.4l7.119-4.251q1.086-.593,1.087.593v6.229q1.284-.79,3.311-1.977t4.055-2.324q2.026-1.135,3.708-1.928a7.294,7.294,0,0,1,2.174-.791,8.624,8.624,0,0,1,5.933,1.929,11.145,11.145,0,0,1,3.164,4.794q1.384-.889,3.36-2.026t3.857-2.175q1.879-1.038,3.411-1.779a6.319,6.319,0,0,1,2.027-.742,9.657,9.657,0,0,1,4.548.99,8.581,8.581,0,0,1,3.065,2.669,11.439,11.439,0,0,1,1.73,3.856,18.8,18.8,0,0,1,.543,4.549v20.268a6.086,6.086,0,0,0,.149,1.532q.148.545,1.237.544h2.966v.4H291.086v-.4h2.768q1.186,0,1.385-.594a4.786,4.786,0,0,0,.2-1.482v-21.158q0-4.746-1.779-6.822a5.83,5.83,0,0,0-4.647-2.076,13.819,13.819,0,0,0-5.637,1.384,33.436,33.436,0,0,0-6.328,3.856,16.5,16.5,0,0,1,.594,4.549v20.268a6.138,6.138,0,0,0,.148,1.532c.1.363.51.544,1.236.544h2.966v.4H269.334v-.4h2.77c.79,0,1.25-.2,1.384-.594a4.754,4.754,0,0,0,.2-1.482Z" transform="translate(-246.199 -1036.102)" fill="#f7f7f2"/>
            <path id="Trazado_444" data-name="Trazado 444" d="M333.046,1071.1a53.805,53.805,0,0,1-7.515,6.97,12.729,12.729,0,0,1-7.711,2.818,9.653,9.653,0,0,1-6.08-2.027,6.878,6.878,0,0,1-2.62-5.784,7.579,7.579,0,0,1,1.483-4.844,12.637,12.637,0,0,1,3.756-3.164,29.443,29.443,0,0,1,4.844-2.176q2.57-.888,4.845-1.829a12.912,12.912,0,0,0,3.757-2.274,4.5,4.5,0,0,0,1.483-3.51,9.09,9.09,0,0,0-2.225-5.833,6.313,6.313,0,0,0-4.7-1.977,9.992,9.992,0,0,0-2.52.3,6.154,6.154,0,0,0-2.176,1.088,7.991,7.991,0,0,0-1.928,2.274,25.7,25.7,0,0,0-1.78,3.757l-2.174-3.065q1.086-.69,2.77-1.73t3.459-1.977q1.779-.939,3.262-1.631a6.1,6.1,0,0,1,2.077-.693,9.418,9.418,0,0,1,3.658.742,9.082,9.082,0,0,1,3.164,2.224,11.306,11.306,0,0,1,2.225,3.608,13.27,13.27,0,0,1,.842,4.895c0,.593-.1.841-.3.741a6.664,6.664,0,0,1-.84-.544,3.266,3.266,0,0,0-1.186-.543c-.43-.1-.906.183-1.434.84a9.861,9.861,0,0,1-4.3,3.164q-2.721,1.089-5.29,2.373a15.358,15.358,0,0,0-4.449,3.313q-1.879,2.026-1.879,5.981a7.461,7.461,0,0,0,1.533,4.8q1.531,1.926,5.092,1.928a9.857,9.857,0,0,0,6.031-2.521,60.269,60.269,0,0,0,6.624-6.278Zm.2-.792v7.811a6.3,6.3,0,0,0,.147,1.482c.1.4.51.594,1.237.594h2.966v.4H324.939v-.4h2.769c.791,0,1.25-.2,1.384-.594a4.753,4.753,0,0,0,.2-1.482v-3.757Zm0-13.05v13.545l-3.955,4.152v-19.676Z" transform="translate(-248.317 -1036.102)" fill="#f7f7f2"/>
            <path id="Trazado_445" data-name="Trazado 445" d="M356.8,1045.652h5.338v-3.857q0-2.076-1.582-2.076a5.319,5.319,0,0,0-2.669.89v-.4l7.118-4.251q1.087-.593,1.088.593v9.1h10.58v.4h-10.58v25.31a7.865,7.865,0,0,0,1.731,5.043,5.781,5.781,0,0,0,4.795,2.174,8.4,8.4,0,0,0,3.511-.84,7.729,7.729,0,0,0,2.916-2.224,7.2,7.2,0,0,1-3.56,3.559,11.141,11.141,0,0,1-4.844,1.187,8.441,8.441,0,0,1-3.9-.84,7.434,7.434,0,0,1-2.669-2.275,9.189,9.189,0,0,1-1.484-3.263,16.476,16.476,0,0,1-.445-3.905v-23.927H356.8Z" transform="translate(-249.922 -1035.765)" fill="#f7f7f2"/>
            <path id="Trazado_446" data-name="Trazado 446" d="M378.794,1064.092a20.885,20.885,0,0,1,1.236-7.365,17.183,17.183,0,0,1,3.411-5.685,15.15,15.15,0,0,1,11.269-4.943,14.356,14.356,0,0,1,5.142.939,15.692,15.692,0,0,1,4.4,2.52,17.755,17.755,0,0,1,3.36,3.658,13.545,13.545,0,0,1,2.027,4.449l-26.4,8.9a17.886,17.886,0,0,0,1.976,5.883,14.157,14.157,0,0,0,3.164,3.906,11.734,11.734,0,0,0,3.906,2.174,13.789,13.789,0,0,0,4.3.692,15.211,15.211,0,0,0,7.464-1.879,9.288,9.288,0,0,0,4.5-4.746l.3.2a12.055,12.055,0,0,1-5.387,6.13,15.822,15.822,0,0,1-7.96,2.176,16.419,16.419,0,0,1-6.624-1.334,16.356,16.356,0,0,1-8.8-9A17.294,17.294,0,0,1,378.794,1064.092Zm13.446-17.2a8.526,8.526,0,0,0-4.7,2.769,16.3,16.3,0,0,0-3.015,4.993,23.616,23.616,0,0,0-1.434,5.882,20.462,20.462,0,0,0,.05,5.536l22.047-7.513a17.9,17.9,0,0,0-1.73-5.24,14.2,14.2,0,0,0-2.967-3.955,10.537,10.537,0,0,0-3.856-2.274A8.3,8.3,0,0,0,392.24,1046.889Z" transform="translate(-250.663 -1036.112)" fill="#f7f7f2"/>
            <path id="Trazado_447" data-name="Trazado 447" d="M440.267,1071.1a53.756,53.756,0,0,1-7.515,6.97,12.727,12.727,0,0,1-7.711,2.818,9.653,9.653,0,0,1-6.08-2.027,6.88,6.88,0,0,1-2.62-5.784,7.584,7.584,0,0,1,1.483-4.844,12.629,12.629,0,0,1,3.757-3.164,29.432,29.432,0,0,1,4.843-2.176q2.57-.888,4.846-1.829a12.906,12.906,0,0,0,3.756-2.274,4.493,4.493,0,0,0,1.484-3.51,9.1,9.1,0,0,0-2.225-5.833,6.315,6.315,0,0,0-4.7-1.977,10,10,0,0,0-2.52.3,6.162,6.162,0,0,0-2.176,1.088,7.972,7.972,0,0,0-1.927,2.274,25.5,25.5,0,0,0-1.78,3.757l-2.175-3.065q1.087-.69,2.77-1.73t3.46-1.977q1.777-.939,3.261-1.631a6.11,6.11,0,0,1,2.077-.693,9.423,9.423,0,0,1,3.658.742,9.09,9.09,0,0,1,3.164,2.224,11.321,11.321,0,0,1,2.224,3.608,13.268,13.268,0,0,1,.842,4.895q0,.89-.3.741a6.591,6.591,0,0,1-.841-.544,3.259,3.259,0,0,0-1.186-.543c-.429-.1-.906.183-1.434.84a9.855,9.855,0,0,1-4.3,3.164q-2.721,1.089-5.29,2.373a15.37,15.37,0,0,0-4.449,3.313q-1.879,2.026-1.879,5.981a7.461,7.461,0,0,0,1.533,4.8q1.532,1.926,5.092,1.928a9.857,9.857,0,0,0,6.031-2.521,60.1,60.1,0,0,0,6.624-6.278Zm.2-.792v7.811a6.244,6.244,0,0,0,.148,1.482c.1.4.51.594,1.236.594h2.966v.4H432.16v-.4h2.77q1.186,0,1.383-.594a4.724,4.724,0,0,0,.2-1.482v-3.757Zm0-13.05v13.545l-3.954,4.152v-19.676Z" transform="translate(-251.927 -1036.102)" fill="#f7f7f2"/>
            <path id="Trazado_448" data-name="Trazado 448" d="M451.68,1079.106a2.4,2.4,0,0,1,.732-1.83,2.618,2.618,0,0,1,1.873-.692,2.655,2.655,0,0,1,1.83.692,2.336,2.336,0,0,1,.774,1.83,2.613,2.613,0,0,1-.733,1.792,2.4,2.4,0,0,1-1.871.814,2.328,2.328,0,0,1-1.913-.854A2.759,2.759,0,0,1,451.68,1079.106Z" transform="translate(-253.117 -1037.139)" fill="#f7f7f2"/>
            <path id="Trazado_449" data-name="Trazado 449" d="M462.881,1067.223a17.212,17.212,0,0,1,1.018-6.064,14.164,14.164,0,0,1,2.807-4.681,12.486,12.486,0,0,1,9.28-4.069,11.836,11.836,0,0,1,4.234.773,12.938,12.938,0,0,1,3.621,2.076,14.677,14.677,0,0,1,2.768,3.011,11.186,11.186,0,0,1,1.668,3.663l-21.733,7.326a14.732,14.732,0,0,0,1.629,4.843,11.655,11.655,0,0,0,2.6,3.215,9.646,9.646,0,0,0,3.215,1.791,11.366,11.366,0,0,0,3.541.569,12.515,12.515,0,0,0,6.145-1.546,7.636,7.636,0,0,0,3.7-3.907l.245.163a9.928,9.928,0,0,1-4.435,5.046,13.022,13.022,0,0,1-6.552,1.791,13.639,13.639,0,0,1-9.809-4.069,13.815,13.815,0,0,1-2.89-4.437A14.275,14.275,0,0,1,462.881,1067.223Zm11.069-14.163a7.026,7.026,0,0,0-3.866,2.28,13.407,13.407,0,0,0-2.482,4.11,19.386,19.386,0,0,0-1.181,4.843,16.859,16.859,0,0,0,.041,4.559l18.152-6.186a14.759,14.759,0,0,0-1.424-4.314,11.713,11.713,0,0,0-2.443-3.256,8.655,8.655,0,0,0-3.174-1.872A6.837,6.837,0,0,0,473.95,1053.06Z" transform="translate(-253.494 -1036.325)" fill="#f7f7f2"/>
            <path id="Trazado_450" data-name="Trazado 450" d="M498.865,1071.773q0,3.908,1.5,5.616a4.918,4.918,0,0,0,3.867,1.709,11.642,11.642,0,0,0,4.884-1.261,28.134,28.134,0,0,0,5.535-3.542v-17.174q0-1.711-1.3-1.71a4.372,4.372,0,0,0-2.2.733v-.326l5.86-3.5q.9-.488.9.488v23.2q0,1.71,1.3,1.709a4.385,4.385,0,0,0,2.2-.732v.325l-5.862,3.5c-.6.325-.894.163-.894-.489v-5.127q-1.061.652-2.727,1.628t-3.338,1.912q-1.67.937-3.054,1.587a5.931,5.931,0,0,1-1.791.652,7.946,7.946,0,0,1-3.744-.815,7.035,7.035,0,0,1-2.522-2.2,9.355,9.355,0,0,1-1.425-3.174,15.379,15.379,0,0,1-.447-3.745v-13.918q0-1.711-1.3-1.71a4.378,4.378,0,0,0-2.2.733v-.326l5.862-3.5q.894-.488.9.488Z" transform="translate(-254.478 -1036.316)" fill="#f7f7f2"/>
            <path id="Trazado_451" data-name="Trazado 451" d="M525.368,1072.581a16.582,16.582,0,0,0,3.906,5.332,8.493,8.493,0,0,0,5.941,2.319,24.263,24.263,0,0,0,2.687-.162,9.465,9.465,0,0,0,2.768-.732,6.017,6.017,0,0,0,2.157-1.547,4.143,4.143,0,0,0-.49-5.576,13.051,13.051,0,0,0-3.377-2.075q-2.034-.894-4.395-1.669a26.66,26.66,0,0,1-4.395-1.873,11.493,11.493,0,0,1-3.377-2.686,5.893,5.893,0,0,1-1.344-3.948,7.44,7.44,0,0,1,.774-3.459,7.522,7.522,0,0,1,2.075-2.524,8.743,8.743,0,0,1,3.013-1.505,12.688,12.688,0,0,1,3.5-.488,18.682,18.682,0,0,1,2.158.163q1.344.162,2.727.446t2.686.652a15.78,15.78,0,0,1,2.034.692v5.372h-.326a9.6,9.6,0,0,0-1.588-2.687,13.236,13.236,0,0,0-2.278-2.157,10.618,10.618,0,0,0-2.727-1.465,8.586,8.586,0,0,0-2.931-.529,9.422,9.422,0,0,0-2.32.326,9.2,9.2,0,0,0-2.318.937,5.636,5.636,0,0,0-1.75,1.546,3.661,3.661,0,0,0-.693,2.239,4.549,4.549,0,0,0,1.343,3.419,12.718,12.718,0,0,0,3.377,2.279,39.683,39.683,0,0,0,4.437,1.79,35.327,35.327,0,0,1,4.435,1.831,11.515,11.515,0,0,1,3.377,2.484,5.435,5.435,0,0,1,1.343,3.825,7.026,7.026,0,0,1-3.134,6.187,9.241,9.241,0,0,1-3.255,1.384,17.089,17.089,0,0,1-3.7.407,30.142,30.142,0,0,1-5.414-.529,45.222,45.222,0,0,1-5.249-1.261v-6.756Z" transform="translate(-255.586 -1036.311)" fill="#f7f7f2"/>
            <path id="Trazado_452" data-name="Trazado 452" d="M350.06,1078.105a6.12,6.12,0,0,0,.148,1.531c.1.364.51.544,1.236.544h2.965v.4H341.76v-.4h2.767q1.186,0,1.383-.593a4.756,4.756,0,0,0,.2-1.482V1051.82q0-2.076-1.581-2.075a5.31,5.31,0,0,0-2.668.889v-.4l7.115-4.25q1.084-.591,1.086.593Z" transform="translate(-249.416 -1036.102)" fill="#f7f7f2"/>
            <path id="Trazado_453" data-name="Trazado 453" d="M350.713,1040a8.335,8.335,0,0,0-4.228,4.122,5.879,5.879,0,0,0-1.691-2.431,9.559,9.559,0,0,0-2.431-1.691,8.556,8.556,0,0,0,2.431-1.8,6.9,6.9,0,0,0,1.691-2.43,7,7,0,0,0,1.8,2.43A12.534,12.534,0,0,0,350.713,1040Z" transform="translate(-249.436 -1035.765)" fill="#f7f7f2"/>
          </g>
        </g>
      </g>
    </g>
    <g id="COH7Ir" transform="translate(602.31 1026.223)">
      <g id="Grupo_148" data-name="Grupo 148" transform="translate(0)">
        <path id="Trazado_393" data-name="Trazado 393" d="M351.249,1174.579a32.163,32.163,0,1,1,32.018,32.16A32.2,32.2,0,0,1,351.249,1174.579Z" transform="translate(-351.249 -1142.387)" fill="#f4e9d7" stroke="#f4e9d7" stroke-miterlimit="10" stroke-width="0.68"/>
        <path id="Trazado_394" data-name="Trazado 394" d="M376.016,1175.954q0-6.6,0-13.2c0-1.514.662-1.882,1.973-1.125q11.423,6.6,22.846,13.191c1.328.767,1.32,1.48-.033,2.262q-11.534,6.667-23.075,13.324c-1.218.7-1.893.314-1.893-1.074q0-6.688,0-13.377Z" transform="translate(-353.116 -1143.818)" fill="#123a25" stroke="#f4e9d7" stroke-miterlimit="10" stroke-width="0.68"/>
      </g>
    </g>
  </g>
</svg>
