<svg xmlns="http://www.w3.org/2000/svg" width="29.335" height="29.335" viewBox="0 0 29.335 29.335">
  <g id="Unión_1" data-name="Unión 1" transform="translate(-671.243 -1429.243)" fill="none">
    <path d="M695.456,1457.7l-9.546-9.546-9.546,9.546a3,3,0,0,1-4.243-4.243l9.546-9.546-9.546-9.546a3,3,0,0,1,4.244-4.243l9.546,9.546,9.546-9.546a3,3,0,0,1,4.243,4.243l-9.546,9.546,9.546,9.546a3,3,0,1,1-4.243,4.243Z" stroke="none"/>
    <path d="M 697.5770874023438 1457.827392578125 C 698.1781616210938 1457.827392578125 698.7432861328125 1457.59326171875 699.1683959960938 1457.168090820312 C 699.593505859375 1456.743041992188 699.8275756835938 1456.178100585938 699.8275756835938 1455.577270507812 C 699.8275756835938 1454.976318359375 699.593505859375 1454.411376953125 699.1683959960938 1453.986206054688 L 689.092041015625 1443.909912109375 L 699.1681518554688 1433.834106445312 C 700.0452270507812 1432.956420898438 700.0452880859375 1431.52880859375 699.1683959960938 1430.651977539062 C 698.7433471679688 1430.226806640625 698.1781616210938 1429.992797851562 697.5770874023438 1429.992797851562 C 696.97607421875 1429.992797851562 696.4112548828125 1430.226806640625 695.9864501953125 1430.651977539062 L 685.9100952148438 1440.72802734375 L 675.8341064453125 1430.651977539062 C 675.4090576171875 1430.226806640625 674.8438720703125 1429.992797851562 674.24267578125 1429.992797851562 C 673.6414794921875 1429.992797851562 673.0762939453125 1430.226806640625 672.6512451171875 1430.65185546875 C 671.7742919921875 1431.52880859375 671.7744140625 1432.956420898438 672.6512451171875 1433.833862304688 L 682.727783203125 1443.910034179688 L 672.6514282226562 1453.986083984375 C 671.7747192382812 1454.863403320312 671.7747192382812 1456.291015625 672.6512451171875 1457.168212890625 C 673.0763549804688 1457.59326171875 673.6414794921875 1457.827392578125 674.2425537109375 1457.827392578125 C 674.8435668945312 1457.827392578125 675.4083862304688 1457.593383789062 675.8331909179688 1457.168090820312 L 685.9097900390625 1447.091918945312 L 695.9866943359375 1457.168334960938 C 696.4113159179688 1457.593383789062 696.9761352539062 1457.827392578125 697.5770874023438 1457.827392578125 M 697.5770874023438 1458.577392578125 C 696.8092651367188 1458.577392578125 696.0415649414062 1458.284423828125 695.4561157226562 1457.698486328125 L 685.9097900390625 1448.152587890625 L 676.363525390625 1457.698486328125 C 675.192626953125 1458.870361328125 673.2927856445312 1458.870361328125 672.1209106445312 1457.698486328125 C 670.9500122070312 1456.526733398438 670.9500122070312 1454.627685546875 672.1209106445312 1453.455932617188 L 681.6671142578125 1443.910034179688 L 672.1209106445312 1434.3642578125 C 670.9500122070312 1433.1923828125 670.9500122070312 1431.29248046875 672.1209106445312 1430.12158203125 C 673.2927856445312 1428.949951171875 675.1925659179688 1428.949951171875 676.3644409179688 1430.12158203125 L 685.9100952148438 1439.667358398438 L 695.4561157226562 1430.12158203125 C 696.6270141601562 1428.949951171875 698.52685546875 1428.949951171875 699.69873046875 1430.12158203125 C 700.86962890625 1431.29248046875 700.86962890625 1433.1923828125 699.69873046875 1434.3642578125 L 690.1527099609375 1443.909912109375 L 699.69873046875 1453.455932617188 C 700.8705444335938 1454.627685546875 700.8705444335938 1456.526733398438 699.69873046875 1457.698486328125 C 699.11279296875 1458.284423828125 698.3449096679688 1458.577392578125 697.5770874023438 1458.577392578125 Z" stroke="none" fill="#f7f7f2"/>
  </g>
</svg>
