<svg xmlns="http://www.w3.org/2000/svg" width="85.895" height="86.31" viewBox="0 0 85.895 86.31">
  <g id="Grupo_269" data-name="Grupo 269" transform="translate(-688.674 -2158.877)">
    <g id="Grupo_51" data-name="Grupo 51" transform="translate(701.699 2171.845)">
      <g id="Grupo_50" data-name="Grupo 50" transform="translate(0 0)">
        <g id="Grupo_49" data-name="Grupo 49">
          <rect id="Rectángulo_12" data-name="Rectángulo 12" width="60.467" height="30.233" transform="translate(0 30.196)" fill="none" stroke="#f4e9d7" stroke-linecap="round" stroke-linejoin="round" stroke-width="0.737"/>
          <path id="Trazado_110" data-name="Trazado 110" d="M1814.707,1116.636a30.215,30.215,0,1,0,60.429,0Z" transform="translate(-1814.707 -1086.422)" fill="none" stroke="#f4e9d7" stroke-linecap="round" stroke-linejoin="round" stroke-width="0.737"/>
          <path id="Trazado_111" data-name="Trazado 111" d="M1875.137,1104.1h-60.429l30.215-30.215Z" transform="translate(-1814.707 -1073.883)" fill="none" stroke="#f4e9d7" stroke-linecap="round" stroke-linejoin="round" stroke-width="0.737"/>
          <line id="Línea_74" data-name="Línea 74" y1="8.632" x2="51.779" transform="translate(0 21.564)" fill="none" stroke="#f4e9d7" stroke-linecap="round" stroke-linejoin="round" stroke-width="0.737"/>
          <line id="Línea_75" data-name="Línea 75" y1="21.246" x2="39.164" transform="translate(0 8.949)" fill="none" stroke="#f4e9d7" stroke-linecap="round" stroke-linejoin="round" stroke-width="0.737"/>
          <g id="Grupo_47" data-name="Grupo 47" transform="translate(0 30.196)">
            <line id="Línea_76" data-name="Línea 76" y2="30.233" fill="none" stroke="#f4e9d7" stroke-linecap="round" stroke-linejoin="round" stroke-width="0.737"/>
            <line id="Línea_77" data-name="Línea 77" y2="12.863" transform="translate(5.476 17.371)" fill="none" stroke="#f4e9d7" stroke-linecap="round" stroke-linejoin="round" stroke-width="0.737"/>
            <line id="Línea_78" data-name="Línea 78" y2="6.937" transform="translate(10.953 23.296)" fill="none" stroke="#f4e9d7" stroke-linecap="round" stroke-linejoin="round" stroke-width="0.737"/>
            <line id="Línea_79" data-name="Línea 79" y2="3.322" transform="translate(16.429 26.911)" fill="none" stroke="#f4e9d7" stroke-linecap="round" stroke-linejoin="round" stroke-width="0.737"/>
          </g>
          <g id="Grupo_48" data-name="Grupo 48" transform="translate(44.038 30.196)">
            <line id="Línea_80" data-name="Línea 80" y2="30.233" transform="translate(16.429)" fill="none" stroke="#f4e9d7" stroke-linecap="round" stroke-linejoin="round" stroke-width="0.737"/>
            <line id="Línea_81" data-name="Línea 81" y2="12.863" transform="translate(10.953 17.371)" fill="none" stroke="#f4e9d7" stroke-linecap="round" stroke-linejoin="round" stroke-width="0.737"/>
            <line id="Línea_82" data-name="Línea 82" y2="6.937" transform="translate(5.476 23.296)" fill="none" stroke="#f4e9d7" stroke-linecap="round" stroke-linejoin="round" stroke-width="0.737"/>
            <line id="Línea_83" data-name="Línea 83" y2="3.322" transform="translate(0 26.911)" fill="none" stroke="#f4e9d7" stroke-linecap="round" stroke-linejoin="round" stroke-width="0.737"/>
          </g>
          <path id="Trazado_112" data-name="Trazado 112" d="M1850.04,1145.2a7.417,7.417,0,0,0,10.488,0" transform="translate(-1825.07 -1094.798)" fill="none" stroke="#f4e9d7" stroke-linecap="round" stroke-linejoin="round" stroke-width="0.737"/>
          <path id="Trazado_113" data-name="Trazado 113" d="M1873.555,1128.673a7.416,7.416,0,0,0-10.488,0" transform="translate(-1828.89 -1089.315)" fill="none" stroke="#f4e9d7" stroke-linecap="round" stroke-linejoin="round" stroke-width="0.737"/>
          <path id="Trazado_114" data-name="Trazado 114" d="M1847.555,1128.673a7.417,7.417,0,0,0-10.489,0" transform="translate(-1821.265 -1089.315)" fill="none" stroke="#f4e9d7" stroke-linecap="round" stroke-linejoin="round" stroke-width="0.737"/>
        </g>
        <path id="Trazado_115" data-name="Trazado 115" d="M1894.436,1081a14.02,14.02,0,0,0-7.116,6.937,9.89,9.89,0,0,0-2.847-4.091,16.046,16.046,0,0,0-4.091-2.846,14.4,14.4,0,0,0,4.091-3.025,11.622,11.622,0,0,0,2.847-4.091,11.8,11.8,0,0,0,3.024,4.091A21.161,21.161,0,0,0,1894.436,1081Z" transform="translate(-1833.968 -1073.883)" fill="none" stroke="#f4e9d7" stroke-width="1"/>
        <path id="Trazado_116" data-name="Trazado 116" d="M1828.761,1081a14.022,14.022,0,0,0-7.116,6.937,9.9,9.9,0,0,0-2.846-4.091,16.058,16.058,0,0,0-4.092-2.846,14.4,14.4,0,0,0,4.092-3.025,11.63,11.63,0,0,0,2.846-4.091,11.793,11.793,0,0,0,3.025,4.091A21.139,21.139,0,0,0,1828.761,1081Z" transform="translate(-1814.707 -1073.883)" fill="none" stroke="#f4e9d7" stroke-width="1"/>
      </g>
    </g>
    <g id="Grupo_60" data-name="Grupo 60" transform="translate(689.883 2160.254)">
      <path id="Trazado_141" data-name="Trazado 141" d="M1802.854,1059.945a4.853,4.853,0,0,0-2.464,2.4,3.423,3.423,0,0,0-.985-1.416,5.541,5.541,0,0,0-1.417-.985,5,5,0,0,0,1.417-1.047,4.023,4.023,0,0,0,.985-1.416,4.088,4.088,0,0,0,1.047,1.416A7.331,7.331,0,0,0,1802.854,1059.945Z" transform="translate(-1797.988 -1057.481)" fill="#f4e9d7" stroke="#f4e9d7" stroke-width="1"/>
      <line id="Línea_86" data-name="Línea 86" x2="68.014" transform="translate(7.312 2.433)" fill="none" stroke="#f4e9d7" stroke-linecap="round" stroke-linejoin="round" stroke-width="0.737"/>
      <path id="Trazado_142" data-name="Trazado 142" d="M1914.228,1059.945a4.851,4.851,0,0,0-2.464,2.4,3.432,3.432,0,0,0-.986-1.416,5.551,5.551,0,0,0-1.416-.985,5.007,5.007,0,0,0,1.416-1.047,1.073,1.073,0,1,1,2.032,0A7.349,7.349,0,0,0,1914.228,1059.945Z" transform="translate(-1830.652 -1057.481)" fill="#f4e9d7" stroke="#f4e9d7" stroke-width="1"/>
    </g>
    <g id="Grupo_61" data-name="Grupo 61" transform="translate(689.883 2238.963)">
      <path id="Trazado_143" data-name="Trazado 143" d="M1802.854,1171.318a4.857,4.857,0,0,0-2.464,2.4,3.431,3.431,0,0,0-.985-1.417,5.575,5.575,0,0,0-1.417-.985,4.968,4.968,0,0,0,1.417-1.047,4.023,4.023,0,0,0,.985-1.416,4.089,4.089,0,0,0,1.047,1.416A7.325,7.325,0,0,0,1802.854,1171.318Z" transform="translate(-1797.988 -1168.854)" fill="#f4e9d7" stroke="#f4e9d7" stroke-width="1"/>
      <line id="Línea_87" data-name="Línea 87" x2="68.014" transform="translate(7.312 2.433)" fill="none" stroke="#f4e9d7" stroke-linecap="round" stroke-linejoin="round" stroke-width="0.737"/>
      <path id="Trazado_144" data-name="Trazado 144" d="M1914.228,1171.318a4.854,4.854,0,0,0-2.464,2.4,3.441,3.441,0,0,0-.986-1.417,5.586,5.586,0,0,0-1.416-.985,4.976,4.976,0,0,0,1.416-1.047,4.036,4.036,0,0,0,.986-1.416,4.077,4.077,0,0,0,1.047,1.416A7.343,7.343,0,0,0,1914.228,1171.318Z" transform="translate(-1830.652 -1168.854)" fill="#f4e9d7" stroke="#f4e9d7" stroke-width="1"/>
    </g>
    <g id="Grupo_62" data-name="Grupo 62" transform="translate(771.026 2167.565)">
      <line id="Línea_88" data-name="Línea 88" y2="68.014" transform="translate(0 0)" fill="none" stroke="#f4e9d7" stroke-linecap="round" stroke-linejoin="round" stroke-width="0.737"/>
    </g>
    <g id="Grupo_63" data-name="Grupo 63" transform="translate(692.316 2167.565)">
      <line id="Línea_89" data-name="Línea 89" y2="68.014" transform="translate(0 0)" fill="none" stroke="#f4e9d7" stroke-linecap="round" stroke-linejoin="round" stroke-width="0.737"/>
    </g>
  </g>
</svg>
